<svg width="3000" height="700" viewBox="0 0 3000 700" fill="none" xmlns="http://www.w3.org/2000/svg">
<g clip-path="url(#clip0_187_74)">
<path fill-rule="evenodd" clip-rule="evenodd" d="M526.493 629.748L306.065 700.283C301.586 701.71 297.075 700.996 293.283 698.238C289.458 695.481 287.399 691.458 287.399 686.786C287.399 464.928 287.399 243.071 287.399 21.2144C287.399 16.5424 289.458 12.5192 293.283 9.76144C297.108 7.00364 301.586 6.28986 306.065 7.71743L526.493 78.2523C532.508 80.1665 536.399 85.4874 536.399 91.7493C536.399 266.594 536.399 441.406 536.399 616.251C536.399 622.513 532.508 627.833 526.493 629.748Z" fill="#4273D9"/>
<path fill-rule="evenodd" clip-rule="evenodd" d="M725.869 569.003C725.869 575.35 721.969 580.744 715.938 582.685L593.189 622.414C588.699 623.862 584.175 623.138 580.373 620.343C576.538 617.547 574.474 613.469 574.474 608.733C574.474 445.439 574.474 282.111 574.474 118.817C574.474 114.081 576.538 110.003 580.373 107.207C584.208 104.412 588.699 103.688 593.189 105.135L715.938 144.865C721.969 146.806 725.869 152.2 725.869 158.547C725.869 295.333 725.869 432.184 725.869 569.003Z" fill="#85CCEF"/>
<path fill-rule="evenodd" clip-rule="evenodd" d="M10.3036 583.253L230.733 699.938C234.884 702.142 239.722 700.651 243.514 697.896C247.339 695.141 249.399 691.121 249.399 686.454C249.399 464.818 249.399 243.182 249.399 21.546C249.399 16.8786 247.339 12.8595 243.514 10.1044C239.69 7.34936 234.884 5.8584 230.733 8.06244L10.3036 125.59C4.74633 128.539 0.39856 132.818 0.39856 139.073C0.39856 313.744 0.39856 395.099 0.39856 569.769C0.39856 576.025 4.74633 580.303 10.3036 583.253Z" fill="#222A94"/>
<path fill-rule="evenodd" clip-rule="evenodd" d="M287.226 428.136V374.757C356.746 373.54 439.441 350.945 536.886 294.475V314.899C459.435 366.173 379.558 410.902 287.226 428.136Z" fill="#85CCEF"/>
<path fill-rule="evenodd" clip-rule="evenodd" d="M725.869 158.517C725.869 182.953 725.869 207.39 725.869 231.826C722.231 225.479 708.923 228.307 708.333 228.439C667.166 239.325 611.052 269.221 574.474 291.191V271.523C580.242 267.807 586.011 264.058 591.845 260.111C629.637 234.622 664.511 214.461 696.73 198.74C717.019 188.544 725.345 183.151 725.869 158.517Z" fill="#D2F6FF"/>
<path fill-rule="evenodd" clip-rule="evenodd" d="M725.87 250.014C725.87 282.837 725.87 315.627 725.87 348.451C721.969 327.665 701.877 330.329 699.714 330.296C657.072 330.263 614.003 341.314 574.442 356.574V325.231C623.508 299.643 666.577 284.284 704.368 276.588C715.578 273.332 725.378 260.966 725.87 250.014Z" fill="#D2F6FF"/>
<path fill-rule="evenodd" clip-rule="evenodd" d="M0 400.016C0 366.535 31.0722 370.252 35.7593 374.823C90.3652 412.613 157.066 441.555 249.66 433.366V373.31C116.783 360.418 38.2504 267.769 0 205.741C0 270.466 0 335.225 0 400.016Z" fill="#4273D9"/>
<path fill-rule="evenodd" clip-rule="evenodd" d="M0 419.617V438.594C0 482.402 0 526.211 0 569.986C0 541.636 16.6177 538.511 27.0735 541.34C87.022 558.442 160.606 558.902 249.66 528.085V485.395C190.826 497.17 20.7148 496.479 0 419.617Z" fill="#4273D9"/>
<path fill-rule="evenodd" clip-rule="evenodd" d="M287.226 513.584V476.189C387.785 447.017 450.88 396.959 536.886 346.179V372.753C448.815 414.16 378.28 474.874 287.226 513.584Z" fill="#85CCEF"/>
<path d="M994.086 349.208C978.244 349.208 963.945 346.122 951.189 339.95C938.432 333.777 927.425 325.445 918.166 314.951C908.908 304.253 901.707 292.319 896.563 279.152C891.625 265.778 889.156 252.096 889.156 238.106C889.156 223.498 891.831 209.61 897.18 196.442C902.53 183.069 909.937 171.238 919.401 160.951C928.865 150.458 939.975 142.228 952.732 136.261C965.694 130.089 979.684 127.003 994.704 127.003C1010.34 127.003 1024.54 130.192 1037.29 136.57C1050.26 142.948 1061.26 151.487 1070.32 162.185C1079.57 172.884 1086.67 184.817 1091.61 197.985C1096.75 211.153 1099.33 224.629 1099.33 238.414C1099.33 253.022 1096.65 267.013 1091.3 280.386C1086.16 293.554 1078.85 305.384 1069.39 315.877C1059.93 326.165 1048.71 334.292 1035.75 340.258C1022.99 346.225 1009.11 349.208 994.086 349.208ZM924.339 238.106C924.339 248.393 925.985 258.371 929.277 268.042C932.569 277.712 937.198 286.353 943.164 293.965C949.337 301.372 956.744 307.236 965.385 311.557C974.026 315.877 983.696 318.038 994.395 318.038C1005.51 318.038 1015.38 315.774 1024.02 311.248C1032.66 306.722 1039.86 300.652 1045.63 293.04C1051.59 285.221 1056.12 276.58 1059.2 267.116C1062.29 257.446 1063.83 247.776 1063.83 238.106C1063.83 227.818 1062.19 217.942 1058.9 208.478C1055.81 198.808 1051.18 190.27 1045.01 182.863C1038.84 175.25 1031.43 169.284 1022.79 164.963C1014.35 160.642 1004.89 158.482 994.395 158.482C983.285 158.482 973.409 160.745 964.768 165.272C956.126 169.798 948.822 175.868 942.856 183.48C936.889 191.093 932.26 199.631 928.968 209.095C925.882 218.56 924.339 228.23 924.339 238.106ZM1135.46 347.665V186.258H1169.09V250.142H1185.14L1232.67 186.258H1270.32L1211.38 264.338L1277.11 347.665H1237.92L1184.83 280.695H1169.09V347.665H1135.46ZM1373.28 350.751C1360.53 350.751 1349.11 348.591 1339.03 344.27C1328.95 339.744 1320.2 333.571 1312.8 325.753C1305.59 317.935 1300.04 309.088 1296.13 299.212C1292.22 289.13 1290.27 278.432 1290.27 267.116C1290.27 255.8 1292.22 245.101 1296.13 235.019C1300.04 224.938 1305.59 216.091 1312.8 208.478C1320.2 200.66 1328.95 194.59 1339.03 190.27C1349.31 185.743 1360.73 183.48 1373.28 183.48C1385.83 183.48 1397.15 185.743 1407.23 190.27C1417.52 194.59 1426.26 200.66 1433.46 208.478C1440.87 216.091 1446.53 224.938 1450.44 235.019C1454.35 245.101 1456.3 255.8 1456.3 267.116C1456.3 278.432 1454.35 289.13 1450.44 299.212C1446.53 309.088 1440.87 317.935 1433.46 325.753C1426.26 333.571 1417.52 339.744 1407.23 344.27C1397.15 348.591 1385.83 350.751 1373.28 350.751ZM1325.14 267.424C1325.14 277.712 1327.3 286.97 1331.62 295.2C1335.94 303.43 1341.7 309.911 1348.9 314.643C1356.1 319.375 1364.23 321.741 1373.28 321.741C1382.13 321.741 1390.16 319.375 1397.36 314.643C1404.76 309.705 1410.63 303.121 1414.95 294.891C1419.27 286.456 1421.43 277.197 1421.43 267.116C1421.43 256.828 1419.27 247.57 1414.95 239.34C1410.63 231.11 1404.76 224.629 1397.36 219.897C1390.16 214.959 1382.13 212.49 1373.28 212.49C1364.23 212.49 1356.1 214.959 1348.9 219.897C1341.7 224.835 1335.94 231.419 1331.62 239.649C1327.3 247.673 1325.14 256.931 1325.14 267.424ZM1492.58 347.665V186.258H1526.53V250.45H1601.53V186.258H1635.47V347.665H1601.53V279.769H1526.53V347.665H1492.58ZM1720.87 347.665V216.194H1667.48V186.258H1808.52V216.194H1754.82V347.665H1720.87ZM1840.07 347.665V186.566H1874.02V302.298L1955.8 186.258H1986.66V347.665H1952.72V234.402L1871.86 347.665H1840.07Z" fill="white"/>
<path d="M2017.66 347.665L2064.26 128.546H2217.96L2211.78 158.791H2092.66L2079.69 220.206H2143.27C2159.32 220.206 2172.28 222.778 2182.16 227.921C2192.24 233.065 2199.23 240.369 2203.14 249.833C2207.05 259.092 2207.98 269.996 2205.92 282.547C2204.07 295.097 2199.75 306.31 2192.96 316.186C2186.17 325.856 2177.12 333.571 2165.8 339.332C2154.48 344.887 2140.9 347.665 2125.06 347.665H2017.66ZM2059.02 317.729H2124.75C2134.42 317.729 2142.45 315.98 2148.83 312.483C2155.2 308.985 2160.14 304.458 2163.64 298.903C2167.14 293.142 2169.4 287.279 2170.43 281.312C2171.46 275.551 2171.25 270.099 2169.81 264.955C2168.37 259.606 2164.98 255.388 2159.63 252.302C2154.28 249.216 2146.36 247.673 2135.86 247.673H2073.83L2059.02 317.729ZM2260.51 186.258H2290.45L2284.28 215.268C2292.3 205.598 2301.56 197.882 2312.05 192.121C2322.75 186.361 2333.86 183.48 2345.38 183.48C2357.11 183.48 2367.19 186.566 2375.63 192.739C2384.06 198.705 2390.54 206.729 2395.07 216.811C2399.6 226.892 2401.86 238.106 2401.86 250.45C2401.86 263.412 2399.49 275.963 2394.76 288.102C2390.03 300.035 2383.55 310.734 2375.32 320.198C2367.3 329.662 2357.93 337.172 2347.24 342.727C2336.74 348.077 2325.63 350.751 2313.9 350.751C2301.77 350.751 2291.68 347.665 2283.66 341.493C2275.64 335.32 2269.98 327.296 2266.69 317.42L2246.32 413.401H2212.37L2260.51 186.258ZM2308.97 321.741C2316.79 321.741 2324.09 319.889 2330.88 316.186C2337.87 312.277 2343.94 307.236 2349.09 301.064C2354.44 294.686 2358.65 287.587 2361.74 279.769C2364.83 271.745 2366.37 263.721 2366.37 255.697C2366.37 247.673 2364.83 240.472 2361.74 234.094C2358.86 227.51 2354.64 222.263 2349.09 218.354C2343.74 214.445 2337.36 212.49 2329.95 212.49C2325.84 212.49 2321.41 213.313 2316.68 214.959C2312.16 216.605 2307.63 218.868 2303.1 221.749C2298.58 224.629 2294.46 228.024 2290.76 231.933C2287.26 235.842 2284.48 239.957 2282.43 244.278L2273.17 286.559C2274.61 293.142 2276.87 299.109 2279.96 304.458C2283.25 309.602 2287.36 313.82 2292.3 317.112C2297.45 320.198 2303 321.741 2308.97 321.741ZM2482.86 350.751C2470.92 350.751 2460.64 347.768 2451.99 341.801C2443.35 335.835 2436.77 327.811 2432.24 317.729C2427.72 307.648 2425.45 296.434 2425.45 284.09C2425.45 270.922 2427.82 258.371 2432.55 246.438C2437.28 234.299 2443.76 223.6 2451.99 214.342C2460.43 204.878 2470 197.368 2480.7 191.813C2491.39 186.258 2502.61 183.48 2514.34 183.48C2526.06 183.48 2535.94 186.669 2543.96 193.047C2551.99 199.425 2557.54 207.347 2560.63 216.811L2567.11 186.566H2601.37L2575.44 307.545C2575.24 308.573 2575.03 309.499 2574.82 310.322C2574.82 310.939 2574.82 311.557 2574.82 312.174C2574.82 316.289 2577.19 318.449 2581.92 318.655L2575.75 347.665C2572.87 348.077 2570.3 348.385 2568.03 348.591C2565.77 349.002 2563.71 349.208 2561.86 349.208C2555.48 349.208 2550.55 347.871 2547.05 345.196C2543.55 342.316 2541.8 338.304 2541.8 333.16C2541.8 332.131 2541.8 330.897 2541.8 329.457C2542.01 328.016 2542.21 326.37 2542.42 324.519C2542.83 322.667 2543.35 320.61 2543.96 318.346C2535.94 328.634 2526.37 336.658 2515.26 342.419C2504.36 347.974 2493.55 350.751 2482.86 350.751ZM2497.67 321.741C2501.78 321.741 2506.11 320.918 2510.63 319.272C2515.36 317.626 2519.89 315.363 2524.21 312.483C2528.74 309.602 2532.85 306.207 2536.56 302.298C2540.26 298.389 2543.24 294.171 2545.51 289.645L2554.15 247.364C2553.32 240.78 2551.16 234.916 2547.67 229.773C2544.17 224.423 2539.85 220.206 2534.7 217.12C2529.77 214.033 2524.42 212.49 2518.66 212.49C2510.84 212.49 2503.43 214.445 2496.44 218.354C2489.65 222.057 2483.58 227.098 2478.23 233.476C2473.08 239.854 2468.97 246.953 2465.88 254.771C2462.8 262.589 2461.25 270.51 2461.25 278.535C2461.25 286.764 2462.69 294.068 2465.57 300.446C2468.66 306.825 2472.88 311.968 2478.23 315.877C2483.78 319.787 2490.26 321.741 2497.67 321.741ZM2699.58 350.443C2673.65 350.237 2654.93 343.447 2643.41 330.074C2632.09 316.7 2627.77 297.875 2630.45 273.597C2632.71 254.051 2638.06 237.591 2646.5 224.218C2654.93 210.639 2666.04 200.454 2679.83 193.665C2693.82 186.669 2709.87 183.171 2727.97 183.171C2744.64 183.171 2757.39 186.669 2766.24 193.665C2775.09 200.66 2779.51 210.33 2779.51 222.675C2779.51 233.579 2776.01 243.146 2769.02 251.376C2762.02 259.606 2751.84 265.984 2738.46 270.51C2725.3 275.037 2709.35 277.3 2690.63 277.3C2684.25 277.3 2677.56 277.094 2670.57 276.683C2663.57 276.066 2656.47 275.345 2649.27 274.522L2652.98 254.462C2660.38 255.491 2667.38 256.211 2673.96 256.623C2680.75 257.034 2687.03 257.24 2692.79 257.24C2705.96 257.24 2716.66 255.903 2724.89 253.228C2733.12 250.347 2739.08 246.644 2742.79 242.118C2746.69 237.591 2748.65 232.55 2748.65 226.995C2748.65 221.234 2746.69 216.708 2742.79 213.416C2738.88 209.918 2732.7 208.17 2724.27 208.17C2713.78 208.17 2704.31 210.741 2695.88 215.885C2687.44 220.823 2680.55 228.127 2675.2 237.797C2669.85 247.261 2666.35 258.783 2664.7 272.362C2662.44 290.056 2663.98 303.43 2669.33 312.483C2674.68 321.33 2685.79 325.856 2702.66 326.062C2710.07 326.062 2716.66 325.033 2722.42 322.976C2728.18 320.712 2732.7 317.523 2736 313.408C2739.29 309.088 2740.93 303.841 2740.93 297.669C2740.93 291.291 2739.39 286.25 2736.3 282.547C2733.22 278.637 2729.21 275.86 2724.27 274.214C2719.33 272.568 2713.98 271.745 2708.22 271.745L2717.79 259.4C2722.31 259.194 2727.05 259.606 2731.98 260.635C2737.13 261.458 2742.07 262.795 2746.8 264.647C2751.74 266.498 2756.26 268.967 2760.38 272.054C2764.49 275.14 2767.68 278.946 2769.94 283.472C2772.41 287.793 2773.65 292.937 2773.65 298.903C2773.65 309.808 2770.36 319.169 2763.77 326.988C2757.39 334.6 2748.65 340.464 2737.54 344.579C2726.43 348.488 2713.78 350.443 2699.58 350.443ZM2884.44 350.751C2867.78 350.751 2853.79 346.945 2842.47 339.332C2831.16 331.514 2822.93 321.33 2817.78 308.779C2812.84 296.023 2811.4 282.135 2813.46 267.116C2815.11 255.8 2818.5 245.101 2823.65 235.019C2828.99 224.938 2835.78 216.091 2844.01 208.478C2852.45 200.66 2862.12 194.59 2873.02 190.27C2883.93 185.743 2895.66 183.48 2908.21 183.48C2924.87 183.48 2938.86 187.389 2950.18 195.208C2961.5 202.82 2969.72 213.005 2974.87 225.761C2980.01 238.311 2981.56 252.096 2979.5 267.116C2978.06 278.432 2974.66 289.13 2969.31 299.212C2964.17 309.088 2957.38 317.935 2948.94 325.753C2940.71 333.571 2931.15 339.744 2920.24 344.27C2909.34 348.591 2897.41 350.751 2884.44 350.751ZM2888.46 323.284C2895.24 323.284 2901.73 321.844 2907.9 318.964C2914.07 316.083 2919.73 312.071 2924.87 306.927C2930.02 301.578 2934.34 295.509 2937.83 288.719C2941.33 281.929 2943.6 274.728 2944.62 267.116C2946.27 256.417 2945.45 246.85 2942.15 238.414C2939.07 229.979 2934.23 223.292 2927.65 218.354C2921.07 213.416 2913.25 210.947 2904.19 210.947C2897.41 210.947 2890.92 212.387 2884.75 215.268C2878.58 218.148 2872.92 222.16 2867.78 227.304C2862.63 232.242 2858.31 238.208 2854.82 245.204C2851.52 251.993 2849.36 259.4 2848.34 267.424C2846.89 277.917 2847.72 287.484 2850.8 296.126C2854.1 304.561 2859.03 311.248 2865.62 316.186C2872.2 320.918 2879.81 323.284 2888.46 323.284Z" fill="#85CCEF"/>
<path d="M887.14 621.335V555.821H941.484V621.335H930.439V565.611H898.184V621.335H887.14ZM956.07 621.837V611.922C958.245 611.922 960.169 611.378 961.843 610.291C963.6 609.119 965.148 607.195 966.486 604.517C967.825 601.756 968.871 597.991 969.624 593.222C970.461 588.369 971.005 582.219 971.256 574.773L972.009 555.821H1016.56V621.335H1005.52V565.611H981.798L981.547 575.777C981.212 584.729 980.459 592.176 979.288 598.117C978.117 604.057 976.485 608.743 974.393 612.173C972.301 615.604 969.708 618.072 966.612 619.578C963.6 621.084 960.086 621.837 956.07 621.837ZM1031.76 602.384C1031.76 598.2 1032.94 594.602 1035.28 591.59C1037.71 588.495 1041.01 586.11 1045.19 584.437C1049.38 582.763 1054.23 581.926 1059.75 581.926C1062.68 581.926 1065.78 582.177 1069.04 582.679C1072.3 583.098 1075.19 583.767 1077.7 584.688V579.918C1077.7 574.898 1076.19 570.966 1073.18 568.121C1070.17 565.192 1065.9 563.728 1060.38 563.728C1056.78 563.728 1053.31 564.398 1049.96 565.736C1046.7 566.991 1043.23 568.832 1039.55 571.259L1035.53 563.477C1039.8 560.549 1044.06 558.373 1048.33 556.951C1052.6 555.445 1057.03 554.692 1061.63 554.692C1070 554.692 1076.61 557.035 1081.46 561.72C1086.32 566.322 1088.74 572.765 1088.74 581.048V608.784C1088.74 610.123 1088.99 611.127 1089.5 611.797C1090.08 612.382 1091 612.717 1092.26 612.801V621.335C1091.17 621.502 1090.21 621.628 1089.37 621.711C1088.62 621.795 1087.99 621.837 1087.49 621.837C1084.89 621.837 1082.93 621.126 1081.59 619.703C1080.33 618.281 1079.62 616.775 1079.46 615.185L1079.21 611.044C1076.36 614.725 1072.64 617.57 1068.04 619.578C1063.43 621.586 1058.87 622.59 1054.36 622.59C1050 622.59 1046.11 621.711 1042.68 619.954C1039.25 618.114 1036.58 615.687 1034.65 612.675C1032.73 609.579 1031.76 606.149 1031.76 602.384ZM1074.44 607.027C1075.44 605.856 1076.24 604.685 1076.82 603.513C1077.41 602.258 1077.7 601.212 1077.7 600.376V592.218C1075.11 591.214 1072.39 590.461 1069.54 589.959C1066.7 589.373 1063.89 589.08 1061.13 589.08C1055.53 589.08 1050.97 590.21 1047.45 592.469C1044.02 594.644 1042.31 597.656 1042.31 601.505C1042.31 603.597 1042.85 605.647 1043.94 607.655C1045.11 609.579 1046.78 611.169 1048.96 612.424C1051.22 613.679 1053.98 614.307 1057.24 614.307C1060.67 614.307 1063.94 613.637 1067.03 612.299C1070.13 610.876 1072.6 609.119 1074.44 607.027ZM1137.91 622.59C1132.97 622.59 1128.45 621.711 1124.35 619.954C1120.33 618.114 1116.82 615.604 1113.81 612.424C1110.88 609.245 1108.58 605.605 1106.91 601.505C1105.32 597.405 1104.52 593.055 1104.52 588.453C1104.52 582.261 1105.9 576.613 1108.66 571.51C1111.42 566.406 1115.31 562.348 1120.33 559.336C1125.35 556.24 1131.17 554.692 1137.78 554.692C1144.22 554.692 1149.83 556.156 1154.6 559.085C1159.45 561.929 1163.05 565.778 1165.39 570.631L1154.6 574.02C1152.92 570.924 1150.58 568.539 1147.57 566.866C1144.56 565.109 1141.21 564.23 1137.53 564.23C1133.51 564.23 1129.83 565.276 1126.48 567.368C1123.22 569.46 1120.63 572.346 1118.7 576.028C1116.78 579.626 1115.82 583.767 1115.82 588.453C1115.82 593.055 1116.78 597.238 1118.7 601.003C1120.71 604.685 1123.35 607.613 1126.61 609.789C1129.96 611.964 1133.64 613.052 1137.65 613.052C1140.25 613.052 1142.72 612.591 1145.06 611.671C1147.49 610.751 1149.58 609.538 1151.33 608.031C1153.18 606.442 1154.43 604.726 1155.1 602.886L1165.89 606.149C1164.55 609.328 1162.5 612.173 1159.74 614.683C1157.07 617.11 1153.84 619.034 1150.08 620.456C1146.4 621.879 1142.34 622.59 1137.91 622.59ZM1196.86 621.335V565.611H1174.27V555.821H1230.49V565.611H1207.9V621.335H1196.86ZM1243.97 621.335V555.947H1255.02V606.525L1291.66 555.821H1301.7V621.335H1290.66V571.761L1254.51 621.335H1243.97ZM1321.73 621.335V555.821H1332.78V582.805H1340.06L1360.64 555.821H1373.19L1348.72 587.574L1376.08 621.335H1363.28L1340.06 592.971H1332.78V621.335H1321.73ZM1414.63 622.59C1409.7 622.59 1405.22 621.711 1401.21 619.954C1397.19 618.114 1393.72 615.645 1390.79 612.55C1387.86 609.37 1385.6 605.731 1384.01 601.631C1382.42 597.531 1381.63 593.222 1381.63 588.704C1381.63 584.102 1382.42 579.751 1384.01 575.651C1385.6 571.551 1387.86 567.954 1390.79 564.858C1393.72 561.678 1397.19 559.21 1401.21 557.453C1405.31 555.612 1409.78 554.692 1414.63 554.692C1419.57 554.692 1424.05 555.612 1428.06 557.453C1432.08 559.21 1435.55 561.678 1438.48 564.858C1441.49 567.954 1443.79 571.551 1445.38 575.651C1446.97 579.751 1447.77 584.102 1447.77 588.704C1447.77 593.222 1446.97 597.531 1445.38 601.631C1443.79 605.731 1441.53 609.37 1438.61 612.55C1435.68 615.645 1432.16 618.114 1428.06 619.954C1424.05 621.711 1419.57 622.59 1414.63 622.59ZM1392.92 588.829C1392.92 593.347 1393.88 597.447 1395.81 601.129C1397.82 604.81 1400.45 607.739 1403.72 609.914C1406.98 612.006 1410.62 613.052 1414.63 613.052C1418.65 613.052 1422.29 611.964 1425.55 609.789C1428.9 607.613 1431.54 604.685 1433.46 601.003C1435.47 597.238 1436.47 593.096 1436.47 588.578C1436.47 584.06 1435.47 579.96 1433.46 576.279C1431.54 572.597 1428.9 569.669 1425.55 567.493C1422.29 565.318 1418.65 564.23 1414.63 564.23C1410.62 564.23 1406.98 565.36 1403.72 567.619C1400.45 569.794 1397.82 572.723 1395.81 576.404C1393.88 580.086 1392.92 584.227 1392.92 588.829ZM1463.54 621.335V555.821H1497.42C1501.35 555.821 1504.62 556.616 1507.21 558.206C1509.8 559.712 1511.73 561.678 1512.98 564.105C1514.32 566.531 1514.99 569.125 1514.99 571.886C1514.99 575.4 1514.16 578.58 1512.48 581.424C1510.81 584.186 1508.38 586.277 1505.2 587.7C1508.97 588.787 1512.02 590.754 1514.36 593.598C1516.71 596.36 1517.88 599.79 1517.88 603.89C1517.88 607.571 1517 610.709 1515.24 613.303C1513.49 615.896 1511.02 617.904 1507.84 619.327C1504.66 620.666 1500.98 621.335 1496.79 621.335H1463.54ZM1474.08 613.554H1496.54C1498.55 613.554 1500.35 613.052 1501.94 612.048C1503.61 611.044 1504.91 609.705 1505.83 608.031C1506.75 606.358 1507.21 604.601 1507.21 602.76C1507.21 600.752 1506.75 598.953 1505.83 597.364C1504.99 595.69 1503.78 594.393 1502.19 593.473C1500.68 592.469 1498.93 591.967 1496.92 591.967H1474.08V613.554ZM1474.08 584.688H1494.54C1496.54 584.688 1498.3 584.186 1499.81 583.182C1501.31 582.094 1502.48 580.713 1503.32 579.04C1504.16 577.366 1504.58 575.609 1504.58 573.769C1504.58 571.008 1503.66 568.623 1501.81 566.615C1500.06 564.607 1497.76 563.603 1494.91 563.603H1474.08V584.688ZM1534.31 621.335V555.821H1545.36V578.161H1558.66C1566.36 578.161 1572.17 580.128 1576.11 584.06C1580.12 587.909 1582.13 592.971 1582.13 599.246C1582.13 603.43 1581.25 607.195 1579.49 610.542C1577.82 613.888 1575.31 616.524 1571.96 618.448C1568.62 620.373 1564.43 621.335 1559.41 621.335H1534.31ZM1545.36 612.675H1557.91C1561 612.675 1563.47 612.089 1565.31 610.918C1567.24 609.663 1568.66 608.031 1569.58 606.023C1570.5 604.015 1570.96 601.84 1570.96 599.497C1570.96 597.238 1570.54 595.146 1569.71 593.222C1568.87 591.297 1567.49 589.75 1565.56 588.578C1563.64 587.407 1561 586.821 1557.66 586.821H1545.36V612.675ZM1593.43 621.335V555.947H1604.47V621.335H1593.43ZM1653.82 622.59C1648.88 622.59 1644.36 621.711 1640.26 619.954C1636.25 618.114 1632.73 615.645 1629.72 612.55C1626.79 609.37 1624.49 605.731 1622.82 601.631C1621.23 597.531 1620.43 593.18 1620.43 588.578C1620.43 582.387 1621.86 576.739 1624.7 571.635C1627.55 566.531 1631.48 562.431 1636.5 559.336C1641.6 556.24 1647.42 554.692 1653.94 554.692C1660.55 554.692 1666.29 556.282 1671.14 559.461C1676.07 562.557 1679.88 566.657 1682.56 571.761C1685.32 576.781 1686.7 582.219 1686.7 588.076C1686.7 588.913 1686.66 589.75 1686.57 590.586C1686.57 591.339 1686.53 591.925 1686.45 592.343H1632.11C1632.44 596.611 1633.61 600.417 1635.62 603.764C1637.71 607.027 1640.39 609.621 1643.65 611.546C1646.92 613.386 1650.43 614.307 1654.19 614.307C1658.21 614.307 1661.98 613.303 1665.49 611.295C1669.09 609.287 1671.56 606.651 1672.89 603.388L1682.43 606.023C1681.01 609.203 1678.88 612.048 1676.03 614.558C1673.27 617.068 1669.97 619.034 1666.12 620.456C1662.35 621.879 1658.25 622.59 1653.82 622.59ZM1631.73 584.688H1676.41C1676.07 580.42 1674.86 576.655 1672.77 573.392C1670.68 570.129 1668 567.577 1664.74 565.736C1661.47 563.896 1657.88 562.975 1653.94 562.975C1650.09 562.975 1646.54 563.896 1643.28 565.736C1640.01 567.577 1637.34 570.129 1635.24 573.392C1633.24 576.655 1632.06 580.42 1631.73 584.688ZM1764.36 622.59C1759.42 622.59 1754.94 621.711 1750.93 619.954C1746.91 618.114 1743.44 615.645 1740.51 612.55C1737.58 609.37 1735.32 605.731 1733.73 601.631C1732.14 597.531 1731.35 593.222 1731.35 588.704C1731.35 584.102 1732.14 579.751 1733.73 575.651C1735.32 571.551 1737.58 567.954 1740.51 564.858C1743.44 561.678 1746.91 559.21 1750.93 557.453C1755.03 555.612 1759.5 554.692 1764.36 554.692C1769.29 554.692 1773.77 555.612 1777.79 557.453C1781.8 559.21 1785.27 561.678 1788.2 564.858C1791.21 567.954 1793.52 571.551 1795.11 575.651C1796.69 579.751 1797.49 584.102 1797.49 588.704C1797.49 593.222 1796.69 597.531 1795.11 601.631C1793.52 605.731 1791.26 609.37 1788.33 612.55C1785.4 615.645 1781.89 618.114 1777.79 619.954C1773.77 621.711 1769.29 622.59 1764.36 622.59ZM1742.64 588.829C1742.64 593.347 1743.61 597.447 1745.53 601.129C1747.54 604.81 1750.17 607.739 1753.44 609.914C1756.7 612.006 1760.34 613.052 1764.36 613.052C1768.37 613.052 1772.01 611.964 1775.28 609.789C1778.62 607.613 1781.26 604.685 1783.18 601.003C1785.19 597.238 1786.19 593.096 1786.19 588.578C1786.19 584.06 1785.19 579.96 1783.18 576.279C1781.26 572.597 1778.62 569.669 1775.28 567.493C1772.01 565.318 1768.37 564.23 1764.36 564.23C1760.34 564.23 1756.7 565.36 1753.44 567.619C1750.17 569.794 1747.54 572.723 1745.53 576.404C1743.61 580.086 1742.64 584.227 1742.64 588.829ZM1813.26 621.335V555.821H1824.3V582.805H1831.58L1852.16 555.821H1864.71L1840.24 587.574L1867.6 621.335H1854.8L1831.58 592.971H1824.3V621.335H1813.26ZM1880.85 621.335V555.821H1891.89V582.93H1926.03V555.821H1937.07V621.335H1926.03V592.72H1891.89V621.335H1880.85ZM1952.24 602.384C1952.24 598.2 1953.42 594.602 1955.76 591.59C1958.18 588.495 1961.49 586.11 1965.67 584.437C1969.86 582.763 1974.71 581.926 1980.23 581.926C1983.16 581.926 1986.26 582.177 1989.52 582.679C1992.78 583.098 1995.67 583.767 1998.18 584.688V579.918C1998.18 574.898 1996.67 570.966 1993.66 568.121C1990.65 565.192 1986.38 563.728 1980.86 563.728C1977.26 563.728 1973.79 564.398 1970.44 565.736C1967.18 566.991 1963.71 568.832 1960.03 571.259L1956.01 563.477C1960.28 560.549 1964.54 558.373 1968.81 556.951C1973.08 555.445 1977.51 554.692 1982.11 554.692C1990.48 554.692 1997.09 557.035 2001.94 561.72C2006.8 566.322 2009.22 572.765 2009.22 581.048V608.784C2009.22 610.123 2009.47 611.127 2009.98 611.797C2010.56 612.382 2011.48 612.717 2012.74 612.801V621.335C2011.65 621.502 2010.69 621.628 2009.85 621.711C2009.1 621.795 2008.47 621.837 2007.97 621.837C2005.37 621.837 2003.41 621.126 2002.07 619.703C2000.81 618.281 2000.1 616.775 1999.94 615.185L1999.68 611.044C1996.84 614.725 1993.12 617.57 1988.51 619.578C1983.91 621.586 1979.35 622.59 1974.83 622.59C1970.48 622.59 1966.59 621.711 1963.16 619.954C1959.73 618.114 1957.06 615.687 1955.13 612.675C1953.21 609.579 1952.24 606.149 1952.24 602.384ZM1994.92 607.027C1995.92 605.856 1996.71 604.685 1997.3 603.513C1997.89 602.258 1998.18 601.212 1998.18 600.376V592.218C1995.59 591.214 1992.87 590.461 1990.02 589.959C1987.18 589.373 1984.37 589.08 1981.61 589.08C1976.01 589.08 1971.45 590.21 1967.93 592.469C1964.5 594.644 1962.79 597.656 1962.79 601.505C1962.79 603.597 1963.33 605.647 1964.42 607.655C1965.59 609.579 1967.26 611.169 1969.44 612.424C1971.7 613.679 1974.46 614.307 1977.72 614.307C1981.15 614.307 1984.42 613.637 1987.51 612.299C1990.61 610.876 1993.07 609.119 1994.92 607.027ZM2063.52 621.335V555.821H2117.87V621.335H2106.82V565.611H2074.57V621.335H2063.52ZM2166.84 622.59C2161.9 622.59 2157.43 621.711 2153.41 619.954C2149.39 618.114 2145.92 615.645 2142.99 612.55C2140.07 609.37 2137.81 605.731 2136.22 601.631C2134.63 597.531 2133.83 593.222 2133.83 588.704C2133.83 584.102 2134.63 579.751 2136.22 575.651C2137.81 571.551 2140.07 567.954 2142.99 564.858C2145.92 561.678 2149.39 559.21 2153.41 557.453C2157.51 555.612 2161.99 554.692 2166.84 554.692C2171.78 554.692 2176.25 555.612 2180.27 557.453C2184.28 559.21 2187.76 561.678 2190.69 564.858C2193.7 567.954 2196 571.551 2197.59 575.651C2199.18 579.751 2199.97 584.102 2199.97 588.704C2199.97 593.222 2199.18 597.531 2197.59 601.631C2196 605.731 2193.74 609.37 2190.81 612.55C2187.88 615.645 2184.37 618.114 2180.27 619.954C2176.25 621.711 2171.78 622.59 2166.84 622.59ZM2145.13 588.829C2145.13 593.347 2146.09 597.447 2148.01 601.129C2150.02 604.81 2152.66 607.739 2155.92 609.914C2159.18 612.006 2162.82 613.052 2166.84 613.052C2170.86 613.052 2174.5 611.964 2177.76 609.789C2181.11 607.613 2183.74 604.685 2185.67 601.003C2187.67 597.238 2188.68 593.096 2188.68 588.578C2188.68 584.06 2187.67 579.96 2185.67 576.279C2183.74 572.597 2181.11 569.669 2177.76 567.493C2174.5 565.318 2170.86 564.23 2166.84 564.23C2162.82 564.23 2159.18 565.36 2155.92 567.619C2152.66 569.794 2150.02 572.723 2148.01 576.404C2146.09 580.086 2145.13 584.227 2145.13 588.829ZM2208.59 636.772V611.546H2209.97C2211.81 611.546 2213.48 611.002 2214.99 609.914C2216.58 608.826 2217.96 606.944 2219.13 604.266C2220.38 601.505 2221.39 597.74 2222.14 592.971C2222.89 588.202 2223.4 582.136 2223.65 574.773L2224.27 555.821H2268.83V611.546H2277.74V636.772H2267.95V621.335H2218.38V636.772H2208.59ZM2225.4 611.546H2257.78V565.611H2234.06L2233.69 575.777C2233.44 582.889 2232.93 588.871 2232.18 593.724C2231.51 598.493 2230.59 602.3 2229.42 605.145C2228.33 607.99 2226.99 610.123 2225.4 611.546ZM2326.66 621.335V555.821H2337.7V582.805H2344.98L2365.56 555.821H2378.11L2353.64 587.574L2381 621.335H2368.2L2344.98 592.971H2337.7V621.335H2326.66ZM2388.6 621.837V611.922C2390.77 611.922 2392.7 611.378 2394.37 610.291C2396.13 609.119 2397.68 607.195 2399.02 604.517C2400.35 601.756 2401.4 597.991 2402.15 593.222C2402.99 588.369 2403.53 582.219 2403.78 574.773L2404.54 555.821H2449.09V621.335H2438.05V565.611H2414.33L2414.08 575.777C2413.74 584.729 2412.99 592.176 2411.82 598.117C2410.65 604.057 2409.01 608.743 2406.92 612.173C2404.83 615.604 2402.24 618.072 2399.14 619.578C2396.13 621.084 2392.61 621.837 2388.6 621.837ZM2523.53 622.59C2517.76 622.59 2512.66 621.335 2508.22 618.825C2503.79 616.315 2500.23 612.884 2497.55 608.533C2494.88 604.099 2493.24 599.079 2492.66 593.473H2480.48V621.335H2469.44V555.821H2480.48V583.809H2492.66C2493.33 578.036 2495 572.974 2497.68 568.623C2500.44 564.188 2504.04 560.758 2508.47 558.332C2512.91 555.905 2517.93 554.692 2523.53 554.692C2530.14 554.692 2535.83 556.24 2540.6 559.336C2545.37 562.348 2549.05 566.406 2551.65 571.51C2554.24 576.613 2555.54 582.345 2555.54 588.704C2555.54 595.23 2554.2 601.045 2551.52 606.149C2548.93 611.253 2545.2 615.269 2540.35 618.197C2535.58 621.126 2529.97 622.59 2523.53 622.59ZM2523.53 613.052C2527.63 613.052 2531.23 612.006 2534.33 609.914C2537.42 607.822 2539.85 604.978 2541.6 601.38C2543.36 597.698 2544.24 593.473 2544.24 588.704C2544.24 583.684 2543.32 579.375 2541.48 575.777C2539.72 572.095 2537.25 569.25 2534.07 567.242C2530.98 565.234 2527.46 564.23 2523.53 564.23C2519.6 564.23 2516.09 565.276 2512.99 567.368C2509.98 569.376 2507.63 572.221 2505.96 575.902C2504.29 579.584 2503.45 583.851 2503.45 588.704C2503.45 593.64 2504.29 597.949 2505.96 601.631C2507.72 605.312 2510.1 608.157 2513.12 610.165C2516.21 612.089 2519.68 613.052 2523.53 613.052ZM2608.62 621.335V595.104C2606.03 596.36 2603.31 597.28 2600.46 597.866C2597.7 598.451 2594.65 598.744 2591.3 598.744C2584.19 598.744 2578.75 596.903 2574.99 593.222C2571.3 589.457 2569.46 583.851 2569.46 576.404V555.821H2580.51V574.898C2580.51 580.169 2581.59 584.018 2583.77 586.445C2585.95 588.871 2589.42 590.084 2594.19 590.084C2596.86 590.084 2599.5 589.791 2602.09 589.206C2604.77 588.62 2606.95 587.825 2608.62 586.821V555.821H2619.79V621.335H2608.62Z" fill="white"/>
</g>
<defs>
<clipPath id="clip0_187_74">
<rect width="3000" height="700" fill="white"/>
</clipPath>
</defs>
</svg>
