<svg width="3000" height="700" viewBox="0 0 3000 700" fill="none" xmlns="http://www.w3.org/2000/svg">
<path fill-rule="evenodd" clip-rule="evenodd" d="M530.493 625.748L310.064 696.283C305.586 697.71 301.075 696.996 297.283 694.238C293.458 691.481 291.398 687.458 291.398 682.786C291.398 460.928 291.398 239.071 291.398 17.2144C291.398 12.5424 293.458 8.51924 297.283 5.76144C301.107 3.00364 305.586 2.28986 310.064 3.71743L530.493 74.2523C536.508 76.1665 540.398 81.4874 540.398 87.7493C540.398 262.594 540.398 437.406 540.398 612.251C540.398 618.513 536.508 623.833 530.493 625.748Z" fill="#4273D9"/>
<path fill-rule="evenodd" clip-rule="evenodd" d="M729.869 565.003C729.869 571.35 725.969 576.744 719.938 578.685L597.189 618.414C592.699 619.862 588.175 619.138 584.373 616.343C580.539 613.547 578.474 609.469 578.474 604.733C578.474 441.439 578.474 278.111 578.474 114.817C578.474 110.081 580.539 106.003 584.373 103.207C588.208 100.412 592.699 99.6883 597.189 101.135L719.938 140.865C725.969 142.806 729.869 148.2 729.869 154.547C729.869 291.333 729.869 428.184 729.869 565.003Z" fill="#85CCEF"/>
<path fill-rule="evenodd" clip-rule="evenodd" d="M14.3035 579.253L234.732 695.938C238.884 698.142 243.722 696.651 247.514 693.896C251.339 691.141 253.398 687.121 253.398 682.454C253.398 460.818 253.398 239.182 253.398 17.546C253.398 12.8786 251.339 8.85947 247.514 6.10441C243.689 3.34936 238.884 1.8584 234.732 4.06244L14.3035 121.59C8.74621 124.539 4.39844 128.818 4.39844 135.073C4.39844 309.744 4.39844 391.099 4.39844 565.769C4.39844 572.025 8.74621 576.303 14.3035 579.253Z" fill="#222A94"/>
<path fill-rule="evenodd" clip-rule="evenodd" d="M291.226 424.136V370.757C360.746 369.54 443.441 346.945 540.886 290.475V310.899C463.435 362.173 383.558 406.902 291.226 424.136Z" fill="#85CCEF"/>
<path fill-rule="evenodd" clip-rule="evenodd" d="M729.869 154.517C729.869 178.953 729.869 203.39 729.869 227.826C726.231 221.479 712.923 224.307 712.334 224.439C671.166 235.325 615.052 265.221 578.474 287.191V267.523C584.242 263.807 590.011 260.058 595.845 256.111C633.637 230.622 668.511 210.461 700.731 194.74C721.019 184.544 729.345 179.151 729.869 154.517Z" fill="#D2F6FF"/>
<path fill-rule="evenodd" clip-rule="evenodd" d="M729.87 246.014C729.87 278.837 729.87 311.627 729.87 344.451C725.969 323.665 705.877 326.329 703.714 326.296C661.072 326.263 618.003 337.314 578.442 352.574V321.231C627.508 295.643 670.577 280.284 708.368 272.588C719.578 269.332 729.378 256.966 729.87 246.014Z" fill="#D2F6FF"/>
<path fill-rule="evenodd" clip-rule="evenodd" d="M4 396.016C4 362.535 35.0722 366.252 39.7593 370.823C94.3652 408.613 161.066 437.555 253.66 429.366V369.31C120.783 356.418 42.2504 263.769 4 201.741C4 266.466 4 331.225 4 396.016Z" fill="#4273D9"/>
<path fill-rule="evenodd" clip-rule="evenodd" d="M4 415.617V434.594C4 478.402 4 522.211 4 565.986C4 537.636 20.6177 534.511 31.0735 537.34C91.022 554.442 164.606 554.902 253.66 524.085V481.395C194.826 493.17 24.7148 492.479 4 415.617Z" fill="#4273D9"/>
<path fill-rule="evenodd" clip-rule="evenodd" d="M291.226 509.584V472.189C391.785 443.017 454.88 392.959 540.886 342.179V368.753C452.815 410.16 382.28 470.874 291.226 509.584Z" fill="#85CCEF"/>
<path d="M998.086 345.208C982.244 345.208 967.945 342.122 955.188 335.95C942.432 329.777 931.425 321.445 922.166 310.951C912.908 300.253 905.707 288.319 900.563 275.152C895.625 261.778 893.156 248.096 893.156 234.106C893.156 219.498 895.831 205.61 901.18 192.442C906.53 179.069 913.936 167.238 923.401 156.951C932.865 146.458 943.975 138.228 956.732 132.261C969.693 126.089 983.684 123.003 998.704 123.003C1014.34 123.003 1028.54 126.192 1041.29 132.57C1054.25 138.948 1065.26 147.487 1074.32 158.185C1083.57 168.884 1090.67 180.817 1095.61 193.985C1100.75 207.153 1103.33 220.629 1103.33 234.414C1103.33 249.022 1100.65 263.013 1095.3 276.386C1090.16 289.554 1082.85 301.384 1073.39 311.877C1063.92 322.165 1052.71 330.292 1039.75 336.258C1026.99 342.225 1013.11 345.208 998.086 345.208ZM928.339 234.106C928.339 244.393 929.985 254.371 933.277 264.042C936.568 273.712 941.198 282.353 947.164 289.965C953.337 297.372 960.744 303.236 969.385 307.557C978.026 311.877 987.696 314.038 998.395 314.038C1009.51 314.038 1019.38 311.774 1028.02 307.248C1036.66 302.722 1043.86 296.652 1049.63 289.04C1055.59 281.221 1060.12 272.58 1063.2 263.116C1066.29 253.446 1067.83 243.776 1067.83 234.106C1067.83 223.818 1066.19 213.942 1062.9 204.478C1059.81 194.808 1055.18 186.27 1049.01 178.863C1042.84 171.25 1035.43 165.284 1026.79 160.963C1018.35 156.642 1008.89 154.482 998.395 154.482C987.285 154.482 977.409 156.745 968.768 161.272C960.126 165.798 952.822 171.868 946.856 179.48C940.889 187.093 936.26 195.631 932.968 205.095C929.882 214.56 928.339 224.23 928.339 234.106ZM1139.46 343.665V182.258H1173.09V246.142H1189.14L1236.67 182.258H1274.32L1215.38 260.338L1281.11 343.665H1241.92L1188.83 276.695H1173.09V343.665H1139.46ZM1377.28 346.751C1364.53 346.751 1353.11 344.591 1343.03 340.27C1332.95 335.744 1324.2 329.571 1316.79 321.753C1309.59 313.935 1304.04 305.088 1300.13 295.212C1296.22 285.13 1294.27 274.432 1294.27 263.116C1294.27 251.8 1296.22 241.101 1300.13 231.019C1304.04 220.938 1309.59 212.091 1316.79 204.478C1324.2 196.66 1332.95 190.59 1343.03 186.27C1353.31 181.743 1364.73 179.48 1377.28 179.48C1389.83 179.48 1401.15 181.743 1411.23 186.27C1421.52 190.59 1430.26 196.66 1437.46 204.478C1444.87 212.091 1450.53 220.938 1454.44 231.019C1458.35 241.101 1460.3 251.8 1460.3 263.116C1460.3 274.432 1458.35 285.13 1454.44 295.212C1450.53 305.088 1444.87 313.935 1437.46 321.753C1430.26 329.571 1421.52 335.744 1411.23 340.27C1401.15 344.591 1389.83 346.751 1377.28 346.751ZM1329.14 263.424C1329.14 273.712 1331.3 282.97 1335.62 291.2C1339.94 299.43 1345.7 305.911 1352.9 310.643C1360.1 315.375 1368.23 317.741 1377.28 317.741C1386.13 317.741 1394.16 315.375 1401.36 310.643C1408.76 305.705 1414.63 299.121 1418.95 290.891C1423.27 282.456 1425.43 273.197 1425.43 263.116C1425.43 252.828 1423.27 243.57 1418.95 235.34C1414.63 227.11 1408.76 220.629 1401.36 215.897C1394.16 210.959 1386.13 208.49 1377.28 208.49C1368.23 208.49 1360.1 210.959 1352.9 215.897C1345.7 220.835 1339.94 227.419 1335.62 235.649C1331.3 243.673 1329.14 252.931 1329.14 263.424ZM1496.58 343.665V182.258H1530.53V246.45H1605.53V182.258H1639.47V343.665H1605.53V275.769H1530.53V343.665H1496.58ZM1724.87 343.665V212.194H1671.48V182.258H1812.52V212.194H1758.82V343.665H1724.87ZM1844.07 343.665V182.566H1878.02V298.298L1959.8 182.258H1990.66V343.665H1956.71V230.402L1875.86 343.665H1844.07Z" fill="#000548"/>
<path d="M2021.66 343.665L2068.26 124.546H2221.96L2215.78 154.791H2096.66L2083.69 216.206H2147.27C2163.32 216.206 2176.28 218.778 2186.16 223.921C2196.24 229.065 2203.23 236.369 2207.14 245.833C2211.05 255.092 2211.98 265.996 2209.92 278.547C2208.07 291.097 2203.75 302.31 2196.96 312.186C2190.17 321.856 2181.12 329.571 2169.8 335.332C2158.48 340.887 2144.9 343.665 2129.06 343.665H2021.66ZM2063.02 313.729H2128.75C2138.42 313.729 2146.45 311.98 2152.83 308.483C2159.2 304.985 2164.14 300.458 2167.64 294.903C2171.14 289.142 2173.4 283.279 2174.43 277.312C2175.46 271.551 2175.25 266.099 2173.81 260.955C2172.37 255.606 2168.98 251.388 2163.63 248.302C2158.28 245.216 2150.36 243.673 2139.86 243.673H2077.83L2063.02 313.729ZM2264.51 182.258H2294.45L2288.28 211.268C2296.3 201.598 2305.56 193.882 2316.05 188.121C2326.75 182.361 2337.86 179.48 2349.38 179.48C2361.11 179.48 2371.19 182.566 2379.63 188.739C2388.06 194.705 2394.54 202.729 2399.07 212.811C2403.6 222.892 2405.86 234.106 2405.86 246.45C2405.86 259.412 2403.49 271.963 2398.76 284.102C2394.03 296.035 2387.55 306.734 2379.32 316.198C2371.3 325.662 2361.93 333.172 2351.24 338.727C2340.74 344.077 2329.63 346.751 2317.9 346.751C2305.77 346.751 2295.68 343.665 2287.66 337.493C2279.64 331.32 2273.98 323.296 2270.69 313.42L2250.32 409.401H2216.37L2264.51 182.258ZM2312.97 317.741C2320.78 317.741 2328.09 315.889 2334.88 312.186C2341.87 308.277 2347.94 303.236 2353.09 297.064C2358.44 290.686 2362.65 283.587 2365.74 275.769C2368.83 267.745 2370.37 259.721 2370.37 251.697C2370.37 243.673 2368.83 236.472 2365.74 230.094C2362.86 223.51 2358.64 218.263 2353.09 214.354C2347.74 210.445 2341.36 208.49 2333.95 208.49C2329.84 208.49 2325.41 209.313 2320.68 210.959C2316.16 212.605 2311.63 214.868 2307.1 217.749C2302.58 220.629 2298.46 224.024 2294.76 227.933C2291.26 231.842 2288.48 235.957 2286.43 240.278L2277.17 282.559C2278.61 289.142 2280.87 295.109 2283.96 300.458C2287.25 305.602 2291.36 309.82 2296.3 313.112C2301.44 316.198 2307 317.741 2312.97 317.741ZM2486.86 346.751C2474.92 346.751 2464.64 343.768 2455.99 337.801C2447.35 331.835 2440.77 323.811 2436.24 313.729C2431.72 303.648 2429.45 292.434 2429.45 280.09C2429.45 266.922 2431.82 254.371 2436.55 242.438C2441.28 230.299 2447.76 219.6 2455.99 210.342C2464.43 200.878 2474 193.368 2484.7 187.813C2495.39 182.258 2506.61 179.48 2518.34 179.48C2530.06 179.48 2539.94 182.669 2547.96 189.047C2555.99 195.425 2561.54 203.347 2564.63 212.811L2571.11 182.566H2605.37L2579.44 303.545C2579.24 304.573 2579.03 305.499 2578.82 306.322C2578.82 306.939 2578.82 307.557 2578.82 308.174C2578.82 312.289 2581.19 314.449 2585.92 314.655L2579.75 343.665C2576.87 344.077 2574.3 344.385 2572.03 344.591C2569.77 345.002 2567.71 345.208 2565.86 345.208C2559.48 345.208 2554.55 343.871 2551.05 341.196C2547.55 338.316 2545.8 334.304 2545.8 329.16C2545.8 328.131 2545.8 326.897 2545.8 325.457C2546.01 324.016 2546.21 322.37 2546.42 320.519C2546.83 318.667 2547.35 316.61 2547.96 314.346C2539.94 324.634 2530.37 332.658 2519.26 338.419C2508.36 343.974 2497.55 346.751 2486.86 346.751ZM2501.67 317.741C2505.78 317.741 2510.11 316.918 2514.63 315.272C2519.36 313.626 2523.89 311.363 2528.21 308.483C2532.74 305.602 2536.85 302.207 2540.56 298.298C2544.26 294.389 2547.24 290.171 2549.51 285.645L2558.15 243.364C2557.32 236.78 2555.16 230.916 2551.67 225.773C2548.17 220.423 2543.85 216.206 2538.7 213.12C2533.77 210.033 2528.42 208.49 2522.66 208.49C2514.84 208.49 2507.43 210.445 2500.44 214.354C2493.65 218.057 2487.58 223.098 2482.23 229.476C2477.08 235.854 2472.97 242.953 2469.88 250.771C2466.8 258.589 2465.25 266.51 2465.25 274.535C2465.25 282.764 2466.69 290.068 2469.57 296.446C2472.66 302.825 2476.88 307.968 2482.23 311.877C2487.78 315.787 2494.26 317.741 2501.67 317.741ZM2703.58 346.443C2677.65 346.237 2658.93 339.447 2647.41 326.074C2636.09 312.7 2631.77 293.875 2634.45 269.597C2636.71 250.051 2642.06 233.591 2650.5 220.218C2658.93 206.639 2670.04 196.454 2683.83 189.665C2697.82 182.669 2713.87 179.171 2731.97 179.171C2748.64 179.171 2761.39 182.669 2770.24 189.665C2779.09 196.66 2783.51 206.33 2783.51 218.675C2783.51 229.579 2780.01 239.146 2773.02 247.376C2766.02 255.606 2755.84 261.984 2742.46 266.51C2729.3 271.037 2713.35 273.3 2694.63 273.3C2688.25 273.3 2681.56 273.094 2674.57 272.683C2667.57 272.066 2660.47 271.345 2653.27 270.522L2656.98 250.462C2664.38 251.491 2671.38 252.211 2677.96 252.623C2684.75 253.034 2691.03 253.24 2696.79 253.24C2709.96 253.24 2720.66 251.903 2728.89 249.228C2737.11 246.347 2743.08 242.644 2746.79 238.118C2750.69 233.591 2752.65 228.55 2752.65 222.995C2752.65 217.234 2750.69 212.708 2746.79 209.416C2742.88 205.918 2736.7 204.17 2728.27 204.17C2717.77 204.17 2708.31 206.741 2699.88 211.885C2691.44 216.823 2684.55 224.127 2679.2 233.797C2673.85 243.261 2670.35 254.783 2668.7 268.362C2666.44 286.056 2667.98 299.43 2673.33 308.483C2678.68 317.33 2689.79 321.856 2706.66 322.062C2714.07 322.062 2720.66 321.033 2726.42 318.976C2732.18 316.712 2736.7 313.523 2740 309.408C2743.29 305.088 2744.93 299.841 2744.93 293.669C2744.93 287.291 2743.39 282.25 2740.3 278.547C2737.22 274.637 2733.21 271.86 2728.27 270.214C2723.33 268.568 2717.98 267.745 2712.22 267.745L2721.79 255.4C2726.31 255.194 2731.05 255.606 2735.98 256.635C2741.13 257.458 2746.06 258.795 2750.8 260.647C2755.73 262.498 2760.26 264.967 2764.38 268.054C2768.49 271.14 2771.68 274.946 2773.94 279.472C2776.41 283.793 2777.65 288.937 2777.65 294.903C2777.65 305.808 2774.35 315.169 2767.77 322.988C2761.39 330.6 2752.65 336.464 2741.54 340.579C2730.43 344.488 2717.77 346.443 2703.58 346.443ZM2888.44 346.751C2871.78 346.751 2857.79 342.945 2846.47 335.332C2835.16 327.514 2826.93 317.33 2821.78 304.779C2816.84 292.023 2815.4 278.135 2817.46 263.116C2819.11 251.8 2822.5 241.101 2827.65 231.019C2832.99 220.938 2839.78 212.091 2848.01 204.478C2856.45 196.66 2866.12 190.59 2877.02 186.27C2887.93 181.743 2899.66 179.48 2912.21 179.48C2928.87 179.48 2942.86 183.389 2954.18 191.208C2965.49 198.82 2973.72 209.005 2978.87 221.761C2984.01 234.311 2985.56 248.096 2983.5 263.116C2982.06 274.432 2978.66 285.13 2973.31 295.212C2968.17 305.088 2961.38 313.935 2952.94 321.753C2944.71 329.571 2935.15 335.744 2924.24 340.27C2913.34 344.591 2901.41 346.751 2888.44 346.751ZM2892.46 319.284C2899.24 319.284 2905.73 317.844 2911.9 314.964C2918.07 312.083 2923.73 308.071 2928.87 302.927C2934.02 297.578 2938.34 291.509 2941.83 284.719C2945.33 277.929 2947.6 270.728 2948.62 263.116C2950.27 252.417 2949.45 242.85 2946.15 234.414C2943.07 225.979 2938.23 219.292 2931.65 214.354C2925.07 209.416 2917.25 206.947 2908.19 206.947C2901.41 206.947 2894.92 208.387 2888.75 211.268C2882.58 214.148 2876.92 218.16 2871.78 223.304C2866.63 228.242 2862.31 234.208 2858.82 241.204C2855.52 247.993 2853.36 255.4 2852.33 263.424C2850.89 273.917 2851.72 283.484 2854.8 292.126C2858.1 300.561 2863.03 307.248 2869.62 312.186C2876.2 316.918 2883.81 319.284 2892.46 319.284Z" fill="#85CCEF"/>
<path d="M891.14 617.335V551.821H945.483V617.335H934.439V561.611H902.184V617.335H891.14ZM960.069 617.837V607.922C962.245 607.922 964.169 607.378 965.843 606.291C967.6 605.119 969.148 603.195 970.486 600.517C971.825 597.756 972.871 593.991 973.624 589.222C974.461 584.369 975.004 578.219 975.255 570.773L976.009 551.821H1020.56V617.335H1009.52V561.611H985.798L985.547 571.777C985.212 580.729 984.459 588.176 983.288 594.117C982.116 600.057 980.485 604.743 978.393 608.173C976.301 611.604 973.708 614.072 970.612 615.578C967.6 617.084 964.086 617.837 960.069 617.837ZM1035.76 598.384C1035.76 594.2 1036.94 590.602 1039.28 587.59C1041.71 584.495 1045.01 582.11 1049.19 580.437C1053.38 578.763 1058.23 577.926 1063.75 577.926C1066.68 577.926 1069.78 578.177 1073.04 578.679C1076.3 579.098 1079.19 579.767 1081.7 580.688V575.918C1081.7 570.898 1080.19 566.966 1077.18 564.121C1074.17 561.192 1069.9 559.728 1064.38 559.728C1060.78 559.728 1057.31 560.398 1053.96 561.736C1050.7 562.991 1047.23 564.832 1043.55 567.259L1039.53 559.477C1043.8 556.549 1048.06 554.373 1052.33 552.951C1056.6 551.445 1061.03 550.692 1065.63 550.692C1074 550.692 1080.61 553.035 1085.46 557.72C1090.32 562.322 1092.74 568.765 1092.74 577.048V604.784C1092.74 606.123 1092.99 607.127 1093.5 607.797C1094.08 608.382 1095 608.717 1096.26 608.801V617.335C1095.17 617.502 1094.21 617.628 1093.37 617.711C1092.62 617.795 1091.99 617.837 1091.49 617.837C1088.89 617.837 1086.93 617.126 1085.59 615.703C1084.33 614.281 1083.62 612.775 1083.46 611.185L1083.21 607.044C1080.36 610.725 1076.64 613.57 1072.04 615.578C1067.43 617.586 1062.87 618.59 1058.36 618.59C1054 618.59 1050.11 617.711 1046.68 615.954C1043.25 614.114 1040.58 611.687 1038.65 608.675C1036.73 605.579 1035.76 602.149 1035.76 598.384ZM1078.44 603.027C1079.44 601.856 1080.24 600.685 1080.82 599.513C1081.41 598.258 1081.7 597.212 1081.7 596.376V588.218C1079.11 587.214 1076.39 586.461 1073.54 585.959C1070.7 585.373 1067.89 585.08 1065.13 585.08C1059.53 585.08 1054.97 586.21 1051.45 588.469C1048.02 590.644 1046.31 593.656 1046.31 597.505C1046.31 599.597 1046.85 601.647 1047.94 603.655C1049.11 605.579 1050.78 607.169 1052.96 608.424C1055.22 609.679 1057.98 610.307 1061.24 610.307C1064.67 610.307 1067.94 609.637 1071.03 608.299C1074.13 606.876 1076.6 605.119 1078.44 603.027ZM1141.91 618.59C1136.97 618.59 1132.45 617.711 1128.35 615.954C1124.33 614.114 1120.82 611.604 1117.81 608.424C1114.88 605.245 1112.58 601.605 1110.91 597.505C1109.32 593.405 1108.52 589.055 1108.52 584.453C1108.52 578.261 1109.9 572.613 1112.66 567.51C1115.42 562.406 1119.31 558.348 1124.33 555.336C1129.35 552.24 1135.17 550.692 1141.78 550.692C1148.22 550.692 1153.83 552.156 1158.6 555.085C1163.45 557.929 1167.05 561.778 1169.39 566.631L1158.6 570.02C1156.92 566.924 1154.58 564.539 1151.57 562.866C1148.56 561.109 1145.21 560.23 1141.53 560.23C1137.51 560.23 1133.83 561.276 1130.48 563.368C1127.22 565.46 1124.63 568.346 1122.7 572.028C1120.78 575.626 1119.82 579.767 1119.82 584.453C1119.82 589.055 1120.78 593.238 1122.7 597.003C1124.71 600.685 1127.35 603.613 1130.61 605.789C1133.96 607.964 1137.64 609.052 1141.65 609.052C1144.25 609.052 1146.72 608.591 1149.06 607.671C1151.49 606.751 1153.58 605.538 1155.33 604.031C1157.17 602.442 1158.43 600.726 1159.1 598.886L1169.89 602.149C1168.55 605.328 1166.5 608.173 1163.74 610.683C1161.07 613.11 1157.84 615.034 1154.08 616.456C1150.4 617.879 1146.34 618.59 1141.91 618.59ZM1200.86 617.335V561.611H1178.27V551.821H1234.49V561.611H1211.9V617.335H1200.86ZM1247.97 617.335V551.947H1259.01V602.525L1295.66 551.821H1305.7V617.335H1294.66V567.761L1258.51 617.335H1247.97ZM1325.73 617.335V551.821H1336.78V578.805H1344.06L1364.64 551.821H1377.19L1352.72 583.574L1380.08 617.335H1367.28L1344.06 588.971H1336.78V617.335H1325.73ZM1418.63 618.59C1413.7 618.59 1409.22 617.711 1405.21 615.954C1401.19 614.114 1397.72 611.645 1394.79 608.55C1391.86 605.37 1389.6 601.731 1388.01 597.631C1386.42 593.531 1385.63 589.222 1385.63 584.704C1385.63 580.102 1386.42 575.751 1388.01 571.651C1389.6 567.551 1391.86 563.954 1394.79 560.858C1397.72 557.678 1401.19 555.21 1405.21 553.453C1409.31 551.612 1413.78 550.692 1418.63 550.692C1423.57 550.692 1428.05 551.612 1432.06 553.453C1436.08 555.21 1439.55 557.678 1442.48 560.858C1445.49 563.954 1447.79 567.551 1449.38 571.651C1450.97 575.751 1451.77 580.102 1451.77 584.704C1451.77 589.222 1450.97 593.531 1449.38 597.631C1447.79 601.731 1445.53 605.37 1442.61 608.55C1439.68 611.645 1436.16 614.114 1432.06 615.954C1428.05 617.711 1423.57 618.59 1418.63 618.59ZM1396.92 584.829C1396.92 589.347 1397.88 593.447 1399.81 597.129C1401.82 600.81 1404.45 603.739 1407.72 605.914C1410.98 608.006 1414.62 609.052 1418.63 609.052C1422.65 609.052 1426.29 607.964 1429.55 605.789C1432.9 603.613 1435.54 600.685 1437.46 597.003C1439.47 593.238 1440.47 589.096 1440.47 584.578C1440.47 580.06 1439.47 575.96 1437.46 572.279C1435.54 568.597 1432.9 565.669 1429.55 563.493C1426.29 561.318 1422.65 560.23 1418.63 560.23C1414.62 560.23 1410.98 561.36 1407.72 563.619C1404.45 565.794 1401.82 568.723 1399.81 572.404C1397.88 576.086 1396.92 580.227 1396.92 584.829ZM1467.54 617.335V551.821H1501.42C1505.35 551.821 1508.62 552.616 1511.21 554.206C1513.8 555.712 1515.73 557.678 1516.98 560.105C1518.32 562.531 1518.99 565.125 1518.99 567.886C1518.99 571.4 1518.16 574.58 1516.48 577.424C1514.81 580.186 1512.38 582.277 1509.2 583.7C1512.97 584.787 1516.02 586.754 1518.36 589.598C1520.71 592.36 1521.88 595.79 1521.88 599.89C1521.88 603.571 1521 606.709 1519.24 609.303C1517.49 611.896 1515.02 613.904 1511.84 615.327C1508.66 616.666 1504.98 617.335 1500.79 617.335H1467.54ZM1478.08 609.554H1500.54C1502.55 609.554 1504.35 609.052 1505.94 608.048C1507.61 607.044 1508.91 605.705 1509.83 604.031C1510.75 602.358 1511.21 600.601 1511.21 598.76C1511.21 596.752 1510.75 594.953 1509.83 593.364C1508.99 591.69 1507.78 590.393 1506.19 589.473C1504.68 588.469 1502.93 587.967 1500.92 587.967H1478.08V609.554ZM1478.08 580.688H1498.53C1500.54 580.688 1502.3 580.186 1503.81 579.182C1505.31 578.094 1506.48 576.713 1507.32 575.04C1508.16 573.366 1508.58 571.609 1508.58 569.769C1508.58 567.008 1507.65 564.623 1505.81 562.615C1504.06 560.607 1501.76 559.603 1498.91 559.603H1478.08V580.688ZM1538.31 617.335V551.821H1549.36V574.161H1562.66C1570.36 574.161 1576.17 576.128 1580.11 580.06C1584.12 583.909 1586.13 588.971 1586.13 595.246C1586.13 599.43 1585.25 603.195 1583.49 606.542C1581.82 609.888 1579.31 612.524 1575.96 614.448C1572.62 616.373 1568.43 617.335 1563.41 617.335H1538.31ZM1549.36 608.675H1561.91C1565 608.675 1567.47 608.089 1569.31 606.918C1571.24 605.663 1572.66 604.031 1573.58 602.023C1574.5 600.015 1574.96 597.84 1574.96 595.497C1574.96 593.238 1574.54 591.146 1573.71 589.222C1572.87 587.297 1571.49 585.75 1569.56 584.578C1567.64 583.407 1565 582.821 1561.66 582.821H1549.36V608.675ZM1597.43 617.335V551.947H1608.47V617.335H1597.43ZM1657.82 618.59C1652.88 618.59 1648.36 617.711 1644.26 615.954C1640.25 614.114 1636.73 611.645 1633.72 608.55C1630.79 605.37 1628.49 601.731 1626.82 597.631C1625.23 593.531 1624.43 589.18 1624.43 584.578C1624.43 578.387 1625.86 572.739 1628.7 567.635C1631.55 562.531 1635.48 558.431 1640.5 555.336C1645.6 552.24 1651.42 550.692 1657.94 550.692C1664.55 550.692 1670.28 552.282 1675.14 555.461C1680.07 558.557 1683.88 562.657 1686.56 567.761C1689.32 572.781 1690.7 578.219 1690.7 584.076C1690.7 584.913 1690.66 585.75 1690.57 586.586C1690.57 587.339 1690.53 587.925 1690.45 588.343H1636.11C1636.44 592.611 1637.61 596.417 1639.62 599.764C1641.71 603.027 1644.39 605.621 1647.65 607.546C1650.92 609.386 1654.43 610.307 1658.19 610.307C1662.21 610.307 1665.98 609.303 1669.49 607.295C1673.09 605.287 1675.56 602.651 1676.89 599.388L1686.43 602.023C1685.01 605.203 1682.88 608.048 1680.03 610.558C1677.27 613.068 1673.97 615.034 1670.12 616.456C1666.35 617.879 1662.25 618.59 1657.82 618.59ZM1635.73 580.688H1680.41C1680.07 576.42 1678.86 572.655 1676.77 569.392C1674.68 566.129 1672 563.577 1668.74 561.736C1665.47 559.896 1661.88 558.975 1657.94 558.975C1654.09 558.975 1650.54 559.896 1647.28 561.736C1644.01 563.577 1641.34 566.129 1639.24 569.392C1637.24 572.655 1636.06 576.42 1635.73 580.688ZM1768.36 618.59C1763.42 618.59 1758.94 617.711 1754.93 615.954C1750.91 614.114 1747.44 611.645 1744.51 608.55C1741.58 605.37 1739.32 601.731 1737.73 597.631C1736.14 593.531 1735.35 589.222 1735.35 584.704C1735.35 580.102 1736.14 575.751 1737.73 571.651C1739.32 567.551 1741.58 563.954 1744.51 560.858C1747.44 557.678 1750.91 555.21 1754.93 553.453C1759.03 551.612 1763.5 550.692 1768.36 550.692C1773.29 550.692 1777.77 551.612 1781.79 553.453C1785.8 555.21 1789.27 557.678 1792.2 560.858C1795.21 563.954 1797.52 567.551 1799.11 571.651C1800.69 575.751 1801.49 580.102 1801.49 584.704C1801.49 589.222 1800.69 593.531 1799.11 597.631C1797.52 601.731 1795.26 605.37 1792.33 608.55C1789.4 611.645 1785.89 614.114 1781.79 615.954C1777.77 617.711 1773.29 618.59 1768.36 618.59ZM1746.64 584.829C1746.64 589.347 1747.61 593.447 1749.53 597.129C1751.54 600.81 1754.17 603.739 1757.44 605.914C1760.7 608.006 1764.34 609.052 1768.36 609.052C1772.37 609.052 1776.01 607.964 1779.28 605.789C1782.62 603.613 1785.26 600.685 1787.18 597.003C1789.19 593.238 1790.19 589.096 1790.19 584.578C1790.19 580.06 1789.19 575.96 1787.18 572.279C1785.26 568.597 1782.62 565.669 1779.28 563.493C1776.01 561.318 1772.37 560.23 1768.36 560.23C1764.34 560.23 1760.7 561.36 1757.44 563.619C1754.17 565.794 1751.54 568.723 1749.53 572.404C1747.61 576.086 1746.64 580.227 1746.64 584.829ZM1817.26 617.335V551.821H1828.3V578.805H1835.58L1856.16 551.821H1868.71L1844.24 583.574L1871.6 617.335H1858.8L1835.58 588.971H1828.3V617.335H1817.26ZM1884.85 617.335V551.821H1895.89V578.93H1930.03V551.821H1941.07V617.335H1930.03V588.72H1895.89V617.335H1884.85ZM1956.24 598.384C1956.24 594.2 1957.42 590.602 1959.76 587.59C1962.18 584.495 1965.49 582.11 1969.67 580.437C1973.86 578.763 1978.71 577.926 1984.23 577.926C1987.16 577.926 1990.26 578.177 1993.52 578.679C1996.78 579.098 1999.67 579.767 2002.18 580.688V575.918C2002.18 570.898 2000.67 566.966 1997.66 564.121C1994.65 561.192 1990.38 559.728 1984.86 559.728C1981.26 559.728 1977.79 560.398 1974.44 561.736C1971.18 562.991 1967.71 564.832 1964.03 567.259L1960.01 559.477C1964.28 556.549 1968.54 554.373 1972.81 552.951C1977.08 551.445 1981.51 550.692 1986.11 550.692C1994.48 550.692 2001.09 553.035 2005.94 557.72C2010.8 562.322 2013.22 568.765 2013.22 577.048V604.784C2013.22 606.123 2013.47 607.127 2013.98 607.797C2014.56 608.382 2015.48 608.717 2016.74 608.801V617.335C2015.65 617.502 2014.69 617.628 2013.85 617.711C2013.1 617.795 2012.47 617.837 2011.97 617.837C2009.37 617.837 2007.41 617.126 2006.07 615.703C2004.81 614.281 2004.1 612.775 2003.94 611.185L2003.68 607.044C2000.84 610.725 1997.12 613.57 1992.51 615.578C1987.91 617.586 1983.35 618.59 1978.83 618.59C1974.48 618.59 1970.59 617.711 1967.16 615.954C1963.73 614.114 1961.05 611.687 1959.13 608.675C1957.21 605.579 1956.24 602.149 1956.24 598.384ZM1998.92 603.027C1999.92 601.856 2000.71 600.685 2001.3 599.513C2001.89 598.258 2002.18 597.212 2002.18 596.376V588.218C1999.58 587.214 1996.87 586.461 1994.02 585.959C1991.18 585.373 1988.37 585.08 1985.61 585.08C1980.01 585.08 1975.45 586.21 1971.93 588.469C1968.5 590.644 1966.79 593.656 1966.79 597.505C1966.79 599.597 1967.33 601.647 1968.42 603.655C1969.59 605.579 1971.26 607.169 1973.44 608.424C1975.7 609.679 1978.46 610.307 1981.72 610.307C1985.15 610.307 1988.41 609.637 1991.51 608.299C1994.61 606.876 1997.07 605.119 1998.92 603.027ZM2067.52 617.335V551.821H2121.87V617.335H2110.82V561.611H2078.57V617.335H2067.52ZM2170.84 618.59C2165.9 618.59 2161.43 617.711 2157.41 615.954C2153.39 614.114 2149.92 611.645 2146.99 608.55C2144.07 605.37 2141.81 601.731 2140.22 597.631C2138.63 593.531 2137.83 589.222 2137.83 584.704C2137.83 580.102 2138.63 575.751 2140.22 571.651C2141.81 567.551 2144.07 563.954 2146.99 560.858C2149.92 557.678 2153.39 555.21 2157.41 553.453C2161.51 551.612 2165.99 550.692 2170.84 550.692C2175.78 550.692 2180.25 551.612 2184.27 553.453C2188.28 555.21 2191.76 557.678 2194.69 560.858C2197.7 563.954 2200 567.551 2201.59 571.651C2203.18 575.751 2203.97 580.102 2203.97 584.704C2203.97 589.222 2203.18 593.531 2201.59 597.631C2200 601.731 2197.74 605.37 2194.81 608.55C2191.88 611.645 2188.37 614.114 2184.27 615.954C2180.25 617.711 2175.78 618.59 2170.84 618.59ZM2149.13 584.829C2149.13 589.347 2150.09 593.447 2152.01 597.129C2154.02 600.81 2156.66 603.739 2159.92 605.914C2163.18 608.006 2166.82 609.052 2170.84 609.052C2174.86 609.052 2178.5 607.964 2181.76 605.789C2185.11 603.613 2187.74 600.685 2189.67 597.003C2191.67 593.238 2192.68 589.096 2192.68 584.578C2192.68 580.06 2191.67 575.96 2189.67 572.279C2187.74 568.597 2185.11 565.669 2181.76 563.493C2178.5 561.318 2174.86 560.23 2170.84 560.23C2166.82 560.23 2163.18 561.36 2159.92 563.619C2156.66 565.794 2154.02 568.723 2152.01 572.404C2150.09 576.086 2149.13 580.227 2149.13 584.829ZM2212.59 632.772V607.546H2213.97C2215.81 607.546 2217.48 607.002 2218.99 605.914C2220.58 604.826 2221.96 602.944 2223.13 600.266C2224.38 597.505 2225.39 593.74 2226.14 588.971C2226.89 584.202 2227.4 578.136 2227.65 570.773L2228.27 551.821H2272.83V607.546H2281.74V632.772H2271.95V617.335H2222.38V632.772H2212.59ZM2229.4 607.546H2261.78V561.611H2238.06L2237.69 571.777C2237.44 578.889 2236.93 584.871 2236.18 589.724C2235.51 594.493 2234.59 598.3 2233.42 601.145C2232.33 603.99 2230.99 606.123 2229.4 607.546ZM2330.66 617.335V551.821H2341.7V578.805H2348.98L2369.56 551.821H2382.11L2357.64 583.574L2385 617.335H2372.2L2348.98 588.971H2341.7V617.335H2330.66ZM2392.6 617.837V607.922C2394.77 607.922 2396.7 607.378 2398.37 606.291C2400.13 605.119 2401.68 603.195 2403.02 600.517C2404.35 597.756 2405.4 593.991 2406.15 589.222C2406.99 584.369 2407.53 578.219 2407.78 570.773L2408.54 551.821H2453.09V617.335H2442.05V561.611H2418.33L2418.08 571.777C2417.74 580.729 2416.99 588.176 2415.82 594.117C2414.65 600.057 2413.01 604.743 2410.92 608.173C2408.83 611.604 2406.24 614.072 2403.14 615.578C2400.13 617.084 2396.61 617.837 2392.6 617.837ZM2527.53 618.59C2521.76 618.59 2516.65 617.335 2512.22 614.825C2507.79 612.315 2504.23 608.884 2501.55 604.533C2498.88 600.099 2497.24 595.079 2496.66 589.473H2484.48V617.335H2473.44V551.821H2484.48V579.809H2496.66C2497.33 574.036 2499 568.974 2501.68 564.623C2504.44 560.188 2508.04 556.758 2512.47 554.332C2516.91 551.905 2521.93 550.692 2527.53 550.692C2534.14 550.692 2539.83 552.24 2544.6 555.336C2549.37 558.348 2553.05 562.406 2555.65 567.51C2558.24 572.613 2559.54 578.345 2559.54 584.704C2559.54 591.23 2558.2 597.045 2555.52 602.149C2552.93 607.253 2549.2 611.269 2544.35 614.197C2539.58 617.126 2533.97 618.59 2527.53 618.59ZM2527.53 609.052C2531.63 609.052 2535.23 608.006 2538.33 605.914C2541.42 603.822 2543.85 600.978 2545.6 597.38C2547.36 593.698 2548.24 589.473 2548.24 584.704C2548.24 579.684 2547.32 575.375 2545.48 571.777C2543.72 568.095 2541.25 565.25 2538.07 563.242C2534.98 561.234 2531.46 560.23 2527.53 560.23C2523.6 560.23 2520.09 561.276 2516.99 563.368C2513.98 565.376 2511.63 568.221 2509.96 571.902C2508.29 575.584 2507.45 579.851 2507.45 584.704C2507.45 589.64 2508.29 593.949 2509.96 597.631C2511.72 601.312 2514.1 604.157 2517.12 606.165C2520.21 608.089 2523.68 609.052 2527.53 609.052ZM2612.62 617.335V591.104C2610.03 592.36 2607.31 593.28 2604.46 593.866C2601.7 594.451 2598.65 594.744 2595.3 594.744C2588.19 594.744 2582.75 592.903 2578.98 589.222C2575.3 585.457 2573.46 579.851 2573.46 572.404V551.821H2584.51V570.898C2584.51 576.169 2585.59 580.018 2587.77 582.445C2589.95 584.871 2593.42 586.084 2598.19 586.084C2600.86 586.084 2603.5 585.791 2606.09 585.206C2608.77 584.62 2610.95 583.825 2612.62 582.821V551.821H2623.79V617.335H2612.62Z" fill="#000548"/>
</svg>
