<svg width="28" height="27" viewBox="0 0 28 27" fill="none" xmlns="http://www.w3.org/2000/svg">
<path fill-rule="evenodd" clip-rule="evenodd" d="M9.12785 17.1498C11.4491 18.4377 12.2444 21.2902 10.9043 23.5209C9.56408 25.7517 6.59582 26.516 4.27452 25.228C1.95331 23.9401 1.15793 21.0876 2.49811 18.8569C3.83829 16.6262 6.80655 15.8619 9.12785 17.1498Z" fill="white"/>
<path d="M8.38933 12.5205L6.0531 1.05211H6.01772L3.62829 12.5205H2.74334L0 0H0.74337L3.16817 11.4684H3.20354L5.57524 0H6.47784L8.86727 11.4684H8.90264L11.3274 0H12.0708L9.30975 12.5205H8.38933ZM13.3451 12.5205V0H19.3805V0.666331H14.0885V5.66406H19.0265V6.33038H14.0885V11.8542H19.5398V12.5205H13.3451ZM20.885 12.5205V0H24.2832C26.4897 0 27.593 1.04048 27.593 3.12136C27.593 3.93968 27.3835 4.58853 26.9646 5.06782C26.5458 5.54712 25.9764 5.83352 25.2567 5.92704V5.96217C26.1416 6.02056 26.8201 6.33917 27.2921 6.91783C27.764 7.4965 28 8.23008 28 9.11858C28 10.1707 27.6785 11.0007 27.0354 11.6087C26.3924 12.2165 25.5104 12.5205 24.3894 12.5205H20.885ZM21.6284 5.66406H24.0532C24.9027 5.66406 25.5812 5.4536 26.0885 5.03277C26.5959 4.61186 26.8496 3.97472 26.8496 3.12136C26.8496 1.43797 26.0237 0.596236 24.3717 0.596236H21.6284V5.66406ZM21.6284 11.9243H24.1239C25.1859 11.9243 25.9735 11.7051 26.4867 11.2667C27.0001 10.8283 27.2566 10.1064 27.2566 9.10101C27.2566 7.20717 26.2006 6.26028 24.0885 6.26028H21.6284V11.9243Z" fill="#4273D9"/>
<path d="M13.4946 26.9999V15.9165H16.7692C17.5944 15.9165 18.2524 16.1493 18.7433 16.615C19.276 17.1221 19.5424 17.8569 19.5424 18.8193C19.5424 19.5747 19.3492 20.1957 18.9627 20.682C18.5658 21.1995 18.0122 21.4944 17.3019 21.5668V21.598C18.1479 21.6496 18.7381 21.9291 19.0723 22.4362C19.3334 22.8502 19.4641 23.4865 19.4641 24.3455V25.5097C19.4641 26.0996 19.5894 26.5963 19.8401 26.9999H19.088C18.9 26.6481 18.806 26.1462 18.806 25.4942V24.3611C18.806 23.5125 18.6598 22.8967 18.3673 22.5138C18.0226 22.0791 17.422 21.8618 16.5655 21.8618H14.1527V26.9999H13.4946ZM14.1527 21.334H16.2522C18.007 21.334 18.8843 20.4957 18.8843 18.8193C18.8843 18.0742 18.6885 17.4921 18.2968 17.0729C17.9051 16.6538 17.3645 16.4442 16.6752 16.4442H14.1527V21.334ZM26.1228 23.0261L24.1957 16.5684H24.1644L22.1903 23.0261H26.1228ZM27.3137 26.9999L26.2482 23.5538H22.0336L20.9682 26.9999H20.3102L23.7884 15.9165H24.6188L27.9717 26.9999H27.3137Z" fill="#4273D9"/>
<mask id="mask0_160_813" style="mask-type:luminance" maskUnits="userSpaceOnUse" x="1" y="16" width="10" height="10">
<path d="M8.44621 17.1498C10.7674 18.4377 11.5628 21.2902 10.2226 23.5209C8.88244 25.7517 5.91418 26.516 3.59288 25.228C1.27167 23.9401 0.476292 21.0876 1.81647 18.8569C3.15665 16.6262 6.12491 15.8619 8.44621 17.1498Z" fill="white"/>
</mask>
<g mask="url(#mask0_160_813)">
<path fill-rule="evenodd" clip-rule="evenodd" d="M4.08862 25.7069L5.13449 26.2871C5.38718 25.3514 6.03928 24.2076 6.88785 23.6533C7.30154 23.383 7.93769 22.8319 8.29878 22.5066C8.45277 22.3678 8.61909 22.2208 8.75578 22.0746C10.2084 20.5204 9.66286 19.599 9.95582 17.9184L9.18501 17.4907C9.10987 18.0054 9.04697 18.511 8.93299 19.0516C8.80914 19.639 8.77225 20.0989 8.42661 20.6591C8.09836 21.1913 7.69666 21.6813 7.30669 22.1632C7.1077 22.4091 6.39599 23.5812 6.23482 23.5757C6.10083 23.4178 6.30591 22.9919 6.38392 22.7858C6.48987 22.5058 6.61288 22.2268 6.73192 21.9455C6.96654 21.3908 7.19863 20.8063 7.48542 20.2744C7.72933 19.8218 7.91633 19.1426 8.08029 18.6483C8.14681 18.4477 8.32014 18.0015 8.3106 17.8336C8.29684 17.5905 8.32301 17.3266 8.41343 17.0626L7.75381 16.6965C7.52806 17.7527 7.49141 17.8637 7.0898 18.8918C6.78916 19.6616 6.4783 20.3919 6.07897 21.1503C5.86436 21.5579 5.63016 21.8681 5.48241 22.2999C5.35332 22.6771 5.26721 23.0284 5.10393 23.4169C4.78446 24.1772 4.39517 24.9437 4.08862 25.7069Z" fill="#4273D9"/>
<path fill-rule="evenodd" clip-rule="evenodd" d="M5.64258 26.5689L6.03086 26.7843C6.60538 26.38 6.56393 26.2225 6.9858 25.891C7.14435 25.7663 7.34393 25.6414 7.48307 25.5096C7.98295 25.0358 7.78776 25.0759 8.51062 24.8424L10.2193 24.2945L10.9152 23.1361L10.8755 23.1445C10.8704 23.1458 10.8617 23.1478 10.8562 23.1494L10.4716 23.2938C10.188 23.403 9.26767 23.8317 9.19135 23.4513C9.17345 23.3422 10.8623 22.365 11.1515 21.9224C11.4985 21.391 12.0597 20.5274 12.3617 19.9703C12.5037 19.7085 12.468 19.6048 12.5333 19.3483L11.7397 18.908C11.576 19.4478 11.618 19.5616 11.2207 20.032C11.0892 20.1876 10.9238 20.376 10.822 20.5525C10.3019 21.454 9.65949 22.3422 8.89898 23.0871C8.1041 23.8655 7.09488 24.0555 6.25822 25.3919C6.00908 25.7898 5.77048 26.1274 5.64258 26.5689Z" fill="#4273D9"/>
<path fill-rule="evenodd" clip-rule="evenodd" d="M-0.77533 23.0079L0.0344024 23.4572C0.154794 23.0145 0.12769 22.7378 0.1851 22.2339C0.218026 21.9446 0.160707 22.0724 0.252731 21.6347C0.371941 21.0672 0.558013 20.2885 0.720026 19.7471C0.90112 19.1417 1.06136 17.9195 1.12873 17.269C1.13979 17.1624 1.12696 17.0679 1.13844 16.9728C1.16714 16.7364 1.35255 16.3416 1.35626 16.0363C1.36116 15.6333 1.39519 15.212 1.59088 14.7989C1.78523 14.3888 1.85092 13.9154 2.00947 13.5092L1.54487 13.2514L1.37855 14.2872C1.21763 14.1735 1.21763 13.269 1.23714 13.0807L0.66186 12.7615C0.637461 13.2762 0.946629 14.069 0.869042 14.5893C0.838817 14.7919 0.77955 15.0389 0.782843 15.2294C0.797364 16.0478 0.398619 16.9727 0.270713 17.8183C0.209166 18.2249 0.166527 18.7056 0.063696 19.1049C-0.0514612 19.5521 -0.220566 19.9665 -0.311662 20.4221C-0.355817 20.643 -0.347205 20.8259 -0.403517 21.0613C-0.496976 21.4514 -0.753714 22.1265 -0.738855 22.3731C-0.725769 22.5906 -0.67309 22.7744 -0.77533 23.0079Z" fill="#4273D9"/>
<path fill-rule="evenodd" clip-rule="evenodd" d="M2.48352 24.816L3.43686 25.3449C3.63509 24.7635 3.67199 25.1324 4.02573 24.1148C4.16782 23.7059 4.29184 23.281 4.40834 22.8711C4.69877 21.8498 4.7203 21.584 4.63368 20.4811C4.61823 20.2844 4.56657 20.1229 4.59907 19.9213C4.67691 19.4391 4.95019 18.5452 5.09279 18.0657C5.21563 17.6523 5.347 17.2363 5.47997 16.8197C5.62223 16.374 5.65102 16.0137 5.75478 15.587L5.13931 15.2456C5.05007 15.6298 4.98937 16.0286 4.9014 16.4168C4.85091 16.6398 4.8808 16.7771 4.83529 16.9982C4.71068 17.604 4.48113 18.2287 4.27656 18.8084C4.1408 19.1931 4.04507 19.6181 3.94688 20.0079C3.81306 20.539 3.83417 21.19 3.69993 21.7423C3.44049 22.8095 3.03187 23.8443 2.48352 24.816Z" fill="#4273D9"/>
<path fill-rule="evenodd" clip-rule="evenodd" d="M0.817749 23.892L1.90836 24.4972C2.54949 23.5944 2.57643 23.0601 2.82549 22.0926C2.96074 21.5671 3.31026 20.2079 3.37958 19.7326C3.55215 18.5498 3.82248 18.3404 4.15351 17.3305C4.33106 16.789 4.42739 16.1407 4.54364 15.5707C4.58164 15.3846 4.60257 15.151 4.6523 14.9758L4.05262 14.6431C3.73003 15.8105 3.59014 16.8862 3.23225 18.0948C3.08848 18.5805 2.71641 19.4315 2.6612 19.8507C2.63021 20.0856 2.68332 20.1433 2.59366 20.4154C2.52704 20.6174 2.45216 20.8036 2.38132 21.0031C2.30694 21.2124 2.29588 21.3925 2.22826 21.5833C1.68633 23.1108 1.29594 23.0496 0.817749 23.892Z" fill="#4273D9"/>
<path fill-rule="evenodd" clip-rule="evenodd" d="M3.35155 14.2538L2.64643 13.8625C2.54241 14.2002 2.485 14.6225 2.3972 14.9738C2.30779 15.3316 2.15853 15.7648 2.13354 16.1064C2.1137 16.3771 2.11555 16.9685 2.02741 17.1904C1.87739 17.5682 1.79837 17.9522 1.71065 18.3297C1.5358 19.0826 1.42909 19.842 1.09054 20.5918C0.906405 20.9996 0.665955 22.5193 0.89475 22.7733C1.27914 22.8309 1.34525 22.1117 1.41212 21.8695C1.62842 21.0872 2.01238 20.4533 2.11614 19.6823C2.15971 19.3585 2.20082 18.9084 2.31176 18.5977C2.4465 18.2206 2.54014 17.8937 2.61857 17.5157L2.8162 16.4327C2.91059 16.0657 3.0439 15.7068 3.15518 15.3413C3.28274 14.9221 3.28646 14.6486 3.35155 14.2538Z" fill="#4273D9"/>
<path fill-rule="evenodd" clip-rule="evenodd" d="M7.03852 16.2994L6.37173 15.9294C6.28621 16.3772 6.29017 16.7496 6.14563 17.2252C6.05977 17.5077 5.7734 18.1229 5.61983 18.5903C5.45393 19.095 4.80604 20.9189 5.2638 21.1636C5.46533 21.1272 5.50163 20.8305 5.53802 20.6566C5.62827 20.2257 5.88206 19.8221 6.07058 19.3976C6.18084 19.1495 6.1935 19.0127 6.26214 18.7789C6.38439 18.362 6.54278 17.9548 6.68867 17.5411C6.83616 17.1227 6.91214 16.7106 7.03852 16.2994Z" fill="#4273D9"/>
<path fill-rule="evenodd" clip-rule="evenodd" d="M6.7157 27.1642L7.59609 27.6527C7.81678 27.3795 8.23621 27.0693 8.53567 27.0971L9.54372 25.4193C9.37942 25.408 8.94581 25.5592 8.75248 25.6416C8.51288 25.7438 8.27496 25.866 8.03654 26.0197C7.67308 26.2543 6.96374 26.7697 6.7157 27.1642Z" fill="#4273D9"/>
</g>
</svg>
