<svg width="28" height="28" viewBox="0 0 28 28" fill="none" xmlns="http://www.w3.org/2000/svg">
<path d="M14 1.5C16.9174 1.5 19.7153 2.62737 21.7782 4.6341C23.8411 6.64082 25 9.36253 25 12.2005C25 16.7221 21.7338 21.6498 15.2862 27.0363C14.9276 27.3359 14.4705 27.5004 13.9979 27.5C13.5252 27.4996 13.0684 27.3343 12.7105 27.0341L12.284 26.6741C6.12174 21.4281 3 16.6211 3 12.2005C3 9.36253 4.15893 6.64082 6.22183 4.6341C8.28473 2.62737 11.0826 1.5 14 1.5ZM14 8.0849C12.8779 8.0849 11.8018 8.51851 11.0084 9.29033C10.215 10.0621 9.76923 11.109 9.76923 12.2005C9.76923 13.292 10.215 14.3388 11.0084 15.1106C11.8018 15.8824 12.8779 16.316 14 16.316C15.1221 16.316 16.1982 15.8824 16.9916 15.1106C17.785 14.3388 18.2308 13.292 18.2308 12.2005C18.2308 11.109 17.785 10.0621 16.9916 9.29033C16.1982 8.51851 15.1221 8.0849 14 8.0849Z" fill="#4273D9"/>
</svg>
