<svg width="28" height="28" viewBox="0 0 28 28" fill="none" xmlns="http://www.w3.org/2000/svg">
<path d="M1 7.44737C1 6.40046 1.42808 5.39643 2.19008 4.65616C2.95207 3.91588 3.98556 3.5 5.06318 3.5H22.9368C24.0144 3.5 25.0479 3.91588 25.8099 4.65616C26.5719 5.39643 27 6.40046 27 7.44737V7.4579L13.9978 13.9284L1 7.46211V7.44737ZM1 9.23579V19.5526C1 20.5995 1.42808 21.6036 2.19008 22.3438C2.95207 23.0841 3.98556 23.5 5.06318 23.5H22.9368C24.0144 23.5 25.0479 23.0841 25.8099 22.3438C26.5719 21.6036 27 20.5995 27 19.5526V9.23263L14.3684 15.5189C14.2537 15.576 14.1267 15.6058 13.9978 15.6058C13.869 15.6058 13.742 15.576 13.6273 15.5189L1 9.23579Z" fill="#4273D9"/>
</svg>
