<svg width="20" height="20" viewBox="0 0 20 20" fill="none" xmlns="http://www.w3.org/2000/svg">
<g clip-path="url(#clip0_160_56)">
<path d="M10 0C7.34844 0 4.80312 1.05422 2.92969 2.92891C1.05432 4.80434 0.000519484 7.34778 0 10C0 12.6511 1.05469 15.1964 2.92969 17.0711C4.80312 18.9458 7.34844 20 10 20C12.6516 20 15.1969 18.9458 17.0703 17.0711C18.9453 15.1964 20 12.6511 20 10C20 7.34891 18.9453 4.80359 17.0703 2.92891C15.1969 1.05422 12.6516 0 10 0Z" fill="url(#paint0_linear_160_56)"/>
<path d="M4.52639 9.89404C7.44202 8.62404 9.38577 7.7867 10.3576 7.38217C13.1358 6.22701 13.7123 6.02639 14.0889 6.01959C14.1717 6.01826 14.3561 6.03873 14.4764 6.136C14.5764 6.21803 14.6045 6.32897 14.6186 6.40686C14.6311 6.48467 14.6483 6.66201 14.6342 6.80045C14.4842 8.3817 13.8326 12.2189 13.5014 13.99C13.3623 14.7394 13.0858 14.9906 12.8186 15.0151C12.2373 15.0686 11.7967 14.6314 11.2342 14.2628C10.3545 13.6858 9.85764 13.3267 9.00296 12.7637C8.01546 12.1131 8.65608 11.7554 9.21858 11.1711C9.36546 11.0181 11.9248 8.69076 11.9733 8.47967C11.9795 8.45326 11.9858 8.35482 11.9264 8.30295C11.8686 8.25092 11.7826 8.26873 11.7201 8.28279C11.6311 8.30279 10.2264 9.23217 7.50139 11.0708C7.10296 11.3448 6.74202 11.4784 6.41702 11.4714C6.06077 11.4637 5.37327 11.2695 4.86233 11.1036C4.23733 10.9 3.73889 10.7923 3.78264 10.4465C3.80452 10.2665 4.05296 10.0823 4.52639 9.89404Z" fill="white"/>
</g>
<defs>
<linearGradient id="paint0_linear_160_56" x1="1000" y1="0" x2="1000" y2="2000" gradientUnits="userSpaceOnUse">
<stop stop-color="#2AABEE"/>
<stop offset="1" stop-color="#229ED9"/>
</linearGradient>
<clipPath id="clip0_160_56">
<rect width="20" height="20" fill="white"/>
</clipPath>
</defs>
</svg>
