<svg width="25" height="18" viewBox="0 0 25 18" fill="none" xmlns="http://www.w3.org/2000/svg">
<g clip-path="url(#clip0_160_53)">
<path d="M24.4479 2.8075C24.3045 2.26486 24.0248 1.77014 23.6366 1.37263C23.2484 0.975112 22.7653 0.688661 22.2354 0.5418C20.2953 0 12.4873 0 12.4873 0C12.4873 0 4.67893 0.0164 2.73889 0.5582C2.20895 0.70507 1.72584 0.991536 1.33766 1.38907C0.949476 1.78661 0.669767 2.28134 0.526386 2.824C-0.0604304 6.3538 -0.288067 11.7324 0.542499 15.121C0.685895 15.6636 0.965611 16.1584 1.35379 16.5559C1.74198 16.9534 2.22508 17.2398 2.755 17.3867C4.69504 17.9285 12.5032 17.9285 12.5032 17.9285C12.5032 17.9285 20.3113 17.9285 22.2513 17.3867C22.7812 17.2399 23.2644 16.9534 23.6526 16.5559C24.0408 16.1584 24.3205 15.6637 24.4639 15.121C25.0828 11.5862 25.2736 6.2109 24.4479 2.8075Z" fill="#FF0000"/>
<path d="M10.0021 12.8059L16.4794 8.96411L10.0021 5.12231V12.8059Z" fill="white"/>
</g>
<defs>
<clipPath id="clip0_160_53">
<rect width="25" height="18" fill="white"/>
</clipPath>
</defs>
</svg>
