<svg width="126" height="126" viewBox="0 0 126 126" fill="none" xmlns="http://www.w3.org/2000/svg">
<rect width="126" height="126" rx="63" fill="#4273D9"/>
<path d="M84.7071 39.6644C85.7958 38.6704 87.2445 38.1208 88.7476 38.1318C90.2507 38.1427 91.6906 38.7132 92.7635 39.7229C93.8363 40.7326 94.4582 42.1026 94.498 43.5438C94.5377 44.9849 93.9921 46.3845 92.9764 47.4472L62.1405 84.4338C61.6102 84.9816 60.9703 85.4211 60.2589 85.7262C59.5475 86.0313 58.7792 86.1957 58 86.2096C57.2209 86.2234 56.4468 86.0864 55.7241 85.8068C55.0014 85.5271 54.3449 85.1106 53.7939 84.5821L33.3448 64.9695C32.7753 64.4606 32.3186 63.8469 32.0018 63.1649C31.685 62.483 31.5146 61.7469 31.5009 61.0005C31.4872 60.2541 31.6303 59.5126 31.9219 58.8204C32.2134 58.1282 32.6473 57.4994 33.1977 56.9715C33.7481 56.4436 34.4037 56.0275 35.1254 55.7479C35.8472 55.4683 36.6202 55.331 37.3985 55.3442C38.1767 55.3573 38.9443 55.5207 39.6553 55.8245C40.3663 56.1284 41.0062 56.5665 41.5368 57.1126L57.7199 72.6263L84.5603 39.8275C84.6086 39.7704 84.6525 39.716 84.7071 39.6644Z" fill="white"/>
</svg>
