<svg width="28" height="28" viewBox="0 0 28 28" fill="none" xmlns="http://www.w3.org/2000/svg">
<path d="M7.37417 12.4129C9.11417 15.8325 11.9175 18.6358 15.3371 20.3758L17.9954 17.7175C18.3338 17.3792 18.805 17.2825 19.2279 17.4154C20.5813 17.8625 22.0312 18.1042 23.5417 18.1042C23.8621 18.1042 24.1695 18.2315 24.3961 18.4581C24.6227 18.6847 24.75 18.992 24.75 19.3125V23.5417C24.75 23.8621 24.6227 24.1695 24.3961 24.3961C24.1695 24.6227 23.8621 24.75 23.5417 24.75C18.0937 24.75 12.8688 22.5858 9.01651 18.7335C5.16421 14.8812 3 9.65632 3 4.20833C3 3.88786 3.12731 3.58052 3.35391 3.35391C3.58052 3.12731 3.88786 3 4.20833 3H8.4375C8.75797 3 9.06531 3.12731 9.29192 3.35391C9.51853 3.58052 9.64583 3.88786 9.64583 4.20833C9.64583 5.71875 9.8875 7.16875 10.3346 8.52208C10.4675 8.945 10.3708 9.41625 10.0325 9.75458L7.37417 12.4129Z" fill="#4273D9"/>
</svg>
