<svg width="20" height="20" viewBox="0 0 20 20" fill="none" xmlns="http://www.w3.org/2000/svg">
<g clip-path="url(#clip0_160_59)">
<path fill-rule="evenodd" clip-rule="evenodd" d="M6.90326 0.0184309C6.44232 0.0296769 5.34282 0.10124 4.95154 0.145443C2.93073 0.373773 1.73232 0.915898 1.07823 1.89755C0.635584 2.5619 0.349436 3.46111 0.190956 4.68583C0.0670351 5.64362 0.0326848 6.33892 0.0151453 8.24577L0 9.89232H0.136048C0.677923 9.89232 2.96739 9.77988 3.59835 9.72227C5.70873 9.52963 6.89561 9.12077 7.88898 8.24418C8.4587 7.74144 8.95933 6.97747 9.23088 6.19642C9.5487 5.28234 9.70369 4.24414 9.8043 2.35593C9.84385 1.61331 9.89577 0.34735 9.89584 0.123654L9.8959 0L8.54921 0.00557094C7.80854 0.00861673 7.06785 0.014422 6.90326 0.0184309ZM10.1044 0.149686C10.1056 0.635321 10.1957 2.5763 10.2491 3.26707C10.4106 5.35255 10.737 6.51555 11.4327 7.48432C12.1209 8.4427 13.0971 9.07823 14.3718 9.39781C15.0948 9.57904 15.7542 9.672 16.9481 9.76093C17.5109 9.80284 19.5016 9.89226 19.8728 9.89232H20L19.9852 8.25878C19.9698 6.56222 19.9493 6.05358 19.8602 5.15442C19.6449 2.98193 19.1111 1.7494 18.0872 1.06061C17.8367 0.892079 17.3899 0.675775 17.0536 0.560191C15.8636 0.151248 14.3242 0.000885102 11.3207 0.000260324L10.1041 0L10.1044 0.149686ZM0.0151453 11.7471C0.036276 14.0431 0.104924 15.0235 0.319119 16.088C0.864143 18.7966 2.15694 19.6802 5.94041 19.9298C6.33031 19.9555 7.15792 19.9756 8.22392 19.9851L9.8959 20V19.864C9.8959 19.2523 9.78228 17.0289 9.71337 16.2925C9.5119 14.1389 9.04024 12.8855 8.06752 11.9189C7.02489 10.8828 5.72934 10.4342 3.23403 10.2451C2.55527 10.1937 0.581873 10.1017 0.140212 10.1008L0 10.1006L0.0151453 11.7471ZM18.9389 10.1284C16.1606 10.2339 14.9166 10.3843 13.8738 10.7408C12.8763 11.0818 12.0845 11.6389 11.5095 12.4042C10.6519 13.5457 10.3242 14.8894 10.1827 17.8452C10.1475 18.5809 10.1047 19.6802 10.1043 19.8562L10.1041 19.9929L11.3207 19.9927C15.1609 19.9922 16.879 19.7247 18.0622 18.943C18.3817 18.732 18.5961 18.5356 18.7939 18.2731C19.4771 17.366 19.803 16.1065 19.9417 13.8362C19.9574 13.5785 19.977 12.6325 19.9852 11.7341L20 10.1006L19.7296 10.1046C19.581 10.1068 19.2251 10.1175 18.9389 10.1284Z" fill="#2C3036"/>
</g>
<defs>
<clipPath id="clip0_160_59">
<rect width="20" height="20" fill="white"/>
</clipPath>
</defs>
</svg>
